<svg width="470" height="272" viewBox="0 0 470 272" fill="none" xmlns="http://www.w3.org/2000/svg">
<g filter="url(#filter0_i_287_36)">
<g clip-path="url(#clip0_287_36)">
<path d="M0 9.99999C0 4.47715 4.47715 0 10 0H470V272H0V9.99999Z" fill="#170826"/>
<mask id="path-3-inside-1_287_36" fill="white">
<path d="M0 1H32V28C32 30.7614 29.7614 33 27 33H0V1Z"/>
</mask>
<path d="M0 1V0.5H-0.5V1H0ZM32 1H32.5V0.5H32V1ZM0 33H-0.5V33.5H0V33ZM0 1.5H32V0.5H0V1.5ZM31.5 1V28H32.5V1H31.5ZM27 32.5H0V33.5H27V32.5ZM0.5 33V1H-0.5V33H0.5ZM31.5 28C31.5 30.4853 29.4853 32.5 27 32.5V33.5C30.0376 33.5 32.5 31.0376 32.5 28H31.5Z" fill="#331946" fill-opacity="0.27" mask="url(#path-3-inside-1_287_36)"/>
<mask id="path-5-inside-2_287_36" fill="white">
<path d="M32 1H64V33H37C34.2386 33 32 30.7614 32 28V1Z"/>
</mask>
<path d="M32 1V0.5H31.5V1H32ZM64 1H64.5V0.5H64V1ZM64 33V33.5H64.5V33H64ZM32 1.5H64V0.5H32V1.5ZM63.5 1V33H64.5V1H63.5ZM64 32.5H37V33.5H64V32.5ZM32.5 28V1H31.5V28H32.5ZM37 32.5C34.5147 32.5 32.5 30.4853 32.5 28H31.5C31.5 31.0376 33.9624 33.5 37 33.5V32.5Z" fill="#331946" fill-opacity="0.27" mask="url(#path-5-inside-2_287_36)"/>
<mask id="path-7-inside-3_287_36" fill="white">
<path d="M64 1H96V33H64V1Z"/>
</mask>
<path d="M64 1V0.5H63.5V1H64ZM96 1H96.5V0.5H96V1ZM96 33V33.5H96.5V33H96ZM64 33H63.5V33.5H64V33ZM64 1.5H96V0.5H64V1.5ZM95.5 1V33H96.5V1H95.5ZM96 32.5H64V33.5H96V32.5ZM64.5 33V1H63.5V33H64.5Z" fill="#331946" fill-opacity="0.27" mask="url(#path-7-inside-3_287_36)"/>
<mask id="path-9-inside-4_287_36" fill="white">
<path d="M96 1H128V33H96V1Z"/>
</mask>
<path d="M96 1V0.5H95.5V1H96ZM128 1H128.5V0.5H128V1ZM128 33V33.5H128.5V33H128ZM96 33H95.5V33.5H96V33ZM96 1.5H128V0.5H96V1.5ZM127.5 1V33H128.5V1H127.5ZM128 32.5H96V33.5H128V32.5ZM96.5 33V1H95.5V33H96.5Z" fill="#331946" fill-opacity="0.27" mask="url(#path-9-inside-4_287_36)"/>
<mask id="path-11-inside-5_287_36" fill="white">
<path d="M128 1H160V33H128V1Z"/>
</mask>
<path d="M128 1V0.5H127.5V1H128ZM160 1H160.5V0.5H160V1ZM160 33V33.5H160.5V33H160ZM128 33H127.5V33.5H128V33ZM128 1.5H160V0.5H128V1.5ZM159.5 1V33H160.5V1H159.5ZM160 32.5H128V33.5H160V32.5ZM128.5 33V1H127.5V33H128.5Z" fill="#331946" fill-opacity="0.27" mask="url(#path-11-inside-5_287_36)"/>
<mask id="path-13-inside-6_287_36" fill="white">
<path d="M160 1H192V33H160V1Z"/>
</mask>
<path d="M160 1V0.5H159.5V1H160ZM192 1H192.5V0.5H192V1ZM192 33V33.5H192.5V33H192ZM160 33H159.5V33.5H160V33ZM160 1.5H192V0.5H160V1.5ZM191.5 1V33H192.5V1H191.5ZM192 32.5H160V33.5H192V32.5ZM160.5 33V1H159.5V33H160.5Z" fill="#331946" fill-opacity="0.27" mask="url(#path-13-inside-6_287_36)"/>
<mask id="path-15-inside-7_287_36" fill="white">
<path d="M192 1H224V33H192V1Z"/>
</mask>
<path d="M192 1V0.5H191.5V1H192ZM224 1H224.5V0.5H224V1ZM224 33V33.5H224.5V33H224ZM192 33H191.5V33.5H192V33ZM192 1.5H224V0.5H192V1.5ZM223.5 1V33H224.5V1H223.5ZM224 32.5H192V33.5H224V32.5ZM192.5 33V1H191.5V33H192.5Z" fill="#331946" fill-opacity="0.27" mask="url(#path-15-inside-7_287_36)"/>
<mask id="path-17-inside-8_287_36" fill="white">
<path d="M224 1H256V33H224V1Z"/>
</mask>
<path d="M224 1V0.5H223.5V1H224ZM256 1H256.5V0.5H256V1ZM256 33V33.5H256.5V33H256ZM224 33H223.5V33.5H224V33ZM224 1.5H256V0.5H224V1.5ZM255.5 1V33H256.5V1H255.5ZM256 32.5H224V33.5H256V32.5ZM224.5 33V1H223.5V33H224.5Z" fill="#331946" fill-opacity="0.27" mask="url(#path-17-inside-8_287_36)"/>
<mask id="path-19-inside-9_287_36" fill="white">
<path d="M256 1H288V33H256V1Z"/>
</mask>
<path d="M256 1V0.5H255.5V1H256ZM288 1H288.5V0.5H288V1ZM288 33V33.5H288.5V33H288ZM256 33H255.5V33.5H256V33ZM256 1.5H288V0.5H256V1.5ZM287.5 1V33H288.5V1H287.5ZM288 32.5H256V33.5H288V32.5ZM256.5 33V1H255.5V33H256.5Z" fill="#331946" fill-opacity="0.27" mask="url(#path-19-inside-9_287_36)"/>
<mask id="path-21-inside-10_287_36" fill="white">
<path d="M288 1H320V33H288V1Z"/>
</mask>
<path d="M288 1V0.5H287.5V1H288ZM320 1H320.5V0.5H320V1ZM320 33V33.5H320.5V33H320ZM288 33H287.5V33.5H288V33ZM288 1.5H320V0.5H288V1.5ZM319.5 1V33H320.5V1H319.5ZM320 32.5H288V33.5H320V32.5ZM288.5 33V1H287.5V33H288.5Z" fill="#331946" fill-opacity="0.27" mask="url(#path-21-inside-10_287_36)"/>
<mask id="path-23-inside-11_287_36" fill="white">
<path d="M320 1H352V33H320V1Z"/>
</mask>
<path d="M320 1V0.5H319.5V1H320ZM352 1H352.5V0.5H352V1ZM352 33V33.5H352.5V33H352ZM320 33H319.5V33.5H320V33ZM320 1.5H352V0.5H320V1.5ZM351.5 1V33H352.5V1H351.5ZM352 32.5H320V33.5H352V32.5ZM320.5 33V1H319.5V33H320.5Z" fill="#331946" fill-opacity="0.27" mask="url(#path-23-inside-11_287_36)"/>
<mask id="path-25-inside-12_287_36" fill="white">
<path d="M352 1H384V33H352V1Z"/>
</mask>
<path d="M352 1V0.5H351.5V1H352ZM384 1H384.5V0.5H384V1ZM384 33V33.5H384.5V33H384ZM352 33H351.5V33.5H352V33ZM352 1.5H384V0.5H352V1.5ZM383.5 1V33H384.5V1H383.5ZM384 32.5H352V33.5H384V32.5ZM352.5 33V1H351.5V33H352.5Z" fill="#331946" fill-opacity="0.27" mask="url(#path-25-inside-12_287_36)"/>
<mask id="path-27-inside-13_287_36" fill="white">
<path d="M384 1H416V33H384V1Z"/>
</mask>
<path d="M384 1V0.5H383.5V1H384ZM416 1H416.5V0.5H416V1ZM416 33V33.5H416.5V33H416ZM384 33H383.5V33.5H384V33ZM384 1.5H416V0.5H384V1.5ZM415.5 1V33H416.5V1H415.5ZM416 32.5H384V33.5H416V32.5ZM384.5 33V1H383.5V33H384.5Z" fill="#331946" fill-opacity="0.27" mask="url(#path-27-inside-13_287_36)"/>
<mask id="path-29-inside-14_287_36" fill="white">
<path d="M416 1H448V33H416V1Z"/>
</mask>
<path d="M416 1V0.5H415.5V1H416ZM448 1H448.5V0.5H448V1ZM448 33V33.5H448.5V33H448ZM416 33H415.5V33.5H416V33ZM416 1.5H448V0.5H416V1.5ZM447.5 1V33H448.5V1H447.5ZM448 32.5H416V33.5H448V32.5ZM416.5 33V1H415.5V33H416.5Z" fill="#331946" fill-opacity="0.27" mask="url(#path-29-inside-14_287_36)"/>
<mask id="path-31-inside-15_287_36" fill="white">
<path d="M448 1H480V33H448V1Z"/>
</mask>
<path d="M448 1V0.5H447.5V1H448ZM480 1H481V0.5H480V1ZM480 33V33.5H481V33H480ZM448 33H447.5V33.5H448V33ZM448 1.5H480V0.5H448V1.5ZM479 1V33H481V1H479ZM480 32.5H448V33.5H480V32.5ZM448.5 33V1H447.5V33H448.5Z" fill="#331946" fill-opacity="0.27" mask="url(#path-31-inside-15_287_36)"/>
<mask id="path-33-inside-16_287_36" fill="white">
<path d="M0 33H27C29.7614 33 32 35.2386 32 38V65H0V33Z"/>
</mask>
<path d="M0 33V32.5H-0.5V33H0ZM32 65V65.5H32.5V65H32ZM0 65H-0.5V65.5H0V65ZM0 33.5H27V32.5H0V33.5ZM31.5 38V65H32.5V38H31.5ZM32 64.5H0V65.5H32V64.5ZM0.5 65V33H-0.5V65H0.5ZM27 33.5C29.4853 33.5 31.5 35.5147 31.5 38H32.5C32.5 34.9624 30.0376 32.5 27 32.5V33.5Z" fill="#331946" fill-opacity="0.27" mask="url(#path-33-inside-16_287_36)"/>
<mask id="path-35-inside-17_287_36" fill="white">
<path d="M32 38C32 35.2386 34.2386 33 37 33H64V65H32V38Z"/>
</mask>
<path d="M64 33H64.5V32.5H64V33ZM64 65V65.5H64.5V65H64ZM32 65H31.5V65.5H32V65ZM37 33.5H64V32.5H37V33.5ZM63.5 33V65H64.5V33H63.5ZM64 64.5H32V65.5H64V64.5ZM32.5 65V38H31.5V65H32.5ZM37 32.5C33.9624 32.5 31.5 34.9624 31.5 38H32.5C32.5 35.5147 34.5147 33.5 37 33.5V32.5Z" fill="#331946" fill-opacity="0.27" mask="url(#path-35-inside-17_287_36)"/>
<mask id="path-37-inside-18_287_36" fill="white">
<path d="M64 33H96V65H64V33Z"/>
</mask>
<path d="M64 33V32.5H63.5V33H64ZM96 33H96.5V32.5H96V33ZM96 65V65.5H96.5V65H96ZM64 65H63.5V65.5H64V65ZM64 33.5H96V32.5H64V33.5ZM95.5 33V65H96.5V33H95.5ZM96 64.5H64V65.5H96V64.5ZM64.5 65V33H63.5V65H64.5Z" fill="#331946" fill-opacity="0.27" mask="url(#path-37-inside-18_287_36)"/>
<mask id="path-39-inside-19_287_36" fill="white">
<path d="M96 33H128V65H96V33Z"/>
</mask>
<path d="M96 33V32.5H95.5V33H96ZM128 33H128.5V32.5H128V33ZM128 65V65.5H128.5V65H128ZM96 65H95.5V65.5H96V65ZM96 33.5H128V32.5H96V33.5ZM127.5 33V65H128.5V33H127.5ZM128 64.5H96V65.5H128V64.5ZM96.5 65V33H95.5V65H96.5Z" fill="#331946" fill-opacity="0.27" mask="url(#path-39-inside-19_287_36)"/>
<mask id="path-41-inside-20_287_36" fill="white">
<path d="M128 33H160V65H128V33Z"/>
</mask>
<path d="M128 33V32.5H127.5V33H128ZM160 33H160.5V32.5H160V33ZM160 65V65.5H160.5V65H160ZM128 65H127.5V65.5H128V65ZM128 33.5H160V32.5H128V33.5ZM159.5 33V65H160.5V33H159.5ZM160 64.5H128V65.5H160V64.5ZM128.5 65V33H127.5V65H128.5Z" fill="#331946" fill-opacity="0.27" mask="url(#path-41-inside-20_287_36)"/>
<mask id="path-43-inside-21_287_36" fill="white">
<path d="M160 33H192V65H160V33Z"/>
</mask>
<path d="M160 33V32.5H159.5V33H160ZM192 33H192.5V32.5H192V33ZM192 65V65.5H192.5V65H192ZM160 65H159.5V65.5H160V65ZM160 33.5H192V32.5H160V33.5ZM191.5 33V65H192.5V33H191.5ZM192 64.5H160V65.5H192V64.5ZM160.5 65V33H159.5V65H160.5Z" fill="#331946" fill-opacity="0.27" mask="url(#path-43-inside-21_287_36)"/>
<mask id="path-45-inside-22_287_36" fill="white">
<path d="M192 33H224V65H192V33Z"/>
</mask>
<path d="M192 33V32.5H191.5V33H192ZM224 33H224.5V32.5H224V33ZM224 65V65.5H224.5V65H224ZM192 65H191.5V65.5H192V65ZM192 33.5H224V32.5H192V33.5ZM223.5 33V65H224.5V33H223.5ZM224 64.5H192V65.5H224V64.5ZM192.5 65V33H191.5V65H192.5Z" fill="#331946" fill-opacity="0.27" mask="url(#path-45-inside-22_287_36)"/>
<mask id="path-47-inside-23_287_36" fill="white">
<path d="M224 33H256V65H224V33Z"/>
</mask>
<path d="M224 33V32.5H223.5V33H224ZM256 33H256.5V32.5H256V33ZM256 65V65.5H256.5V65H256ZM224 65H223.5V65.5H224V65ZM224 33.5H256V32.5H224V33.5ZM255.5 33V65H256.5V33H255.5ZM256 64.5H224V65.5H256V64.5ZM224.5 65V33H223.5V65H224.5Z" fill="#331946" fill-opacity="0.27" mask="url(#path-47-inside-23_287_36)"/>
<mask id="path-49-inside-24_287_36" fill="white">
<path d="M256 33H288V65H256V33Z"/>
</mask>
<path d="M256 33V32.5H255.5V33H256ZM288 33H288.5V32.5H288V33ZM288 65V65.5H288.5V65H288ZM256 65H255.5V65.5H256V65ZM256 33.5H288V32.5H256V33.5ZM287.5 33V65H288.5V33H287.5ZM288 64.5H256V65.5H288V64.5ZM256.5 65V33H255.5V65H256.5Z" fill="#331946" fill-opacity="0.27" mask="url(#path-49-inside-24_287_36)"/>
<mask id="path-51-inside-25_287_36" fill="white">
<path d="M288 33H320V60C320 62.7614 317.761 65 315 65H288V33Z"/>
</mask>
<path d="M288 33V32.5H287.5V33H288ZM320 33H320.5V32.5H320V33ZM288 65H287.5V65.5H288V65ZM288 33.5H320V32.5H288V33.5ZM319.5 33V60H320.5V33H319.5ZM315 64.5H288V65.5H315V64.5ZM288.5 65V33H287.5V65H288.5ZM319.5 60C319.5 62.4853 317.485 64.5 315 64.5V65.5C318.038 65.5 320.5 63.0376 320.5 60H319.5Z" fill="#331946" fill-opacity="0.27" mask="url(#path-51-inside-25_287_36)"/>
<mask id="path-53-inside-26_287_36" fill="white">
<path d="M320 33H352V65H325C322.239 65 320 62.7614 320 60V33Z"/>
</mask>
<path d="M320 33V32.5H319.5V33H320ZM352 33H352.5V32.5H352V33ZM352 65V65.5H352.5V65H352ZM320 33.5H352V32.5H320V33.5ZM351.5 33V65H352.5V33H351.5ZM352 64.5H325V65.5H352V64.5ZM320.5 60V33H319.5V60H320.5ZM325 64.5C322.515 64.5 320.5 62.4853 320.5 60H319.5C319.5 63.0376 321.962 65.5 325 65.5V64.5Z" fill="#331946" fill-opacity="0.27" mask="url(#path-53-inside-26_287_36)"/>
<mask id="path-55-inside-27_287_36" fill="white">
<path d="M352 33H384V65H352V33Z"/>
</mask>
<path d="M352 33V32.5H351.5V33H352ZM384 33H384.5V32.5H384V33ZM384 65V65.5H384.5V65H384ZM352 65H351.5V65.5H352V65ZM352 33.5H384V32.5H352V33.5ZM383.5 33V65H384.5V33H383.5ZM384 64.5H352V65.5H384V64.5ZM352.5 65V33H351.5V65H352.5Z" fill="#331946" fill-opacity="0.27" mask="url(#path-55-inside-27_287_36)"/>
<mask id="path-57-inside-28_287_36" fill="white">
<path d="M384 33H416V65H384V33Z"/>
</mask>
<path d="M384 33V32.5H383.5V33H384ZM416 33H416.5V32.5H416V33ZM416 65V65.5H416.5V65H416ZM384 65H383.5V65.5H384V65ZM384 33.5H416V32.5H384V33.5ZM415.5 33V65H416.5V33H415.5ZM416 64.5H384V65.5H416V64.5ZM384.5 65V33H383.5V65H384.5Z" fill="#331946" fill-opacity="0.27" mask="url(#path-57-inside-28_287_36)"/>
<mask id="path-59-inside-29_287_36" fill="white">
<path d="M416 33H448V65H416V33Z"/>
</mask>
<path d="M416 33V32.5H415.5V33H416ZM448 33H448.5V32.5H448V33ZM448 65V65.5H448.5V65H448ZM416 65H415.5V65.5H416V65ZM416 33.5H448V32.5H416V33.5ZM447.5 33V65H448.5V33H447.5ZM448 64.5H416V65.5H448V64.5ZM416.5 65V33H415.5V65H416.5Z" fill="#331946" fill-opacity="0.27" mask="url(#path-59-inside-29_287_36)"/>
<mask id="path-61-inside-30_287_36" fill="white">
<path d="M448 33H480V65H448V33Z"/>
</mask>
<path d="M448 33V32.5H447.5V33H448ZM480 33H481V32.5H480V33ZM480 65V65.5H481V65H480ZM448 65H447.5V65.5H448V65ZM448 33.5H480V32.5H448V33.5ZM479 33V65H481V33H479ZM480 64.5H448V65.5H480V64.5ZM448.5 65V33H447.5V65H448.5Z" fill="#331946" fill-opacity="0.27" mask="url(#path-61-inside-30_287_36)"/>
<mask id="path-63-inside-31_287_36" fill="white">
<path d="M0 65H32V97H0V65Z"/>
</mask>
<path d="M0 65V64.5H-0.5V65H0ZM32 65H32.5V64.5H32V65ZM32 97V97.5H32.5V97H32ZM0 97H-0.5V97.5H0V97ZM0 65.5H32V64.5H0V65.5ZM31.5 65V97H32.5V65H31.5ZM32 96.5H0V97.5H32V96.5ZM0.5 97V65H-0.5V97H0.5Z" fill="#331946" fill-opacity="0.27" mask="url(#path-63-inside-31_287_36)"/>
<mask id="path-65-inside-32_287_36" fill="white">
<path d="M32 65H64V97H32V65Z"/>
</mask>
<path d="M32 65V64.5H31.5V65H32ZM64 65H64.5V64.5H64V65ZM64 97V97.5H64.5V97H64ZM32 97H31.5V97.5H32V97ZM32 65.5H64V64.5H32V65.5ZM63.5 65V97H64.5V65H63.5ZM64 96.5H32V97.5H64V96.5ZM32.5 97V65H31.5V97H32.5Z" fill="#331946" fill-opacity="0.27" mask="url(#path-65-inside-32_287_36)"/>
<mask id="path-67-inside-33_287_36" fill="white">
<path d="M64 65H96V92C96 94.7614 93.7614 97 91 97H64V65Z"/>
</mask>
<path d="M64 65V64.5H63.5V65H64ZM96 65H96.5V64.5H96V65ZM64 97H63.5V97.5H64V97ZM64 65.5H96V64.5H64V65.5ZM95.5 65V92H96.5V65H95.5ZM91 96.5H64V97.5H91V96.5ZM64.5 97V65H63.5V97H64.5ZM95.5 92C95.5 94.4853 93.4853 96.5 91 96.5V97.5C94.0376 97.5 96.5 95.0376 96.5 92H95.5Z" fill="#331946" fill-opacity="0.27" mask="url(#path-67-inside-33_287_36)"/>
<mask id="path-69-inside-34_287_36" fill="white">
<path d="M96 65H128V97H101C98.2386 97 96 94.7614 96 92V65Z"/>
</mask>
<path d="M96 65V64.5H95.5V65H96ZM128 65H128.5V64.5H128V65ZM128 97V97.5H128.5V97H128ZM96 65.5H128V64.5H96V65.5ZM127.5 65V97H128.5V65H127.5ZM128 96.5H101V97.5H128V96.5ZM96.5 92V65H95.5V92H96.5ZM101 96.5C98.5147 96.5 96.5 94.4853 96.5 92H95.5C95.5 95.0376 97.9624 97.5 101 97.5V96.5Z" fill="#331946" fill-opacity="0.27" mask="url(#path-69-inside-34_287_36)"/>
<mask id="path-71-inside-35_287_36" fill="white">
<path d="M128 65H160V97H128V65Z"/>
</mask>
<path d="M128 65V64.5H127.5V65H128ZM160 65H160.5V64.5H160V65ZM160 97V97.5H160.5V97H160ZM128 97H127.5V97.5H128V97ZM128 65.5H160V64.5H128V65.5ZM159.5 65V97H160.5V65H159.5ZM160 96.5H128V97.5H160V96.5ZM128.5 97V65H127.5V97H128.5Z" fill="#331946" fill-opacity="0.27" mask="url(#path-71-inside-35_287_36)"/>
<mask id="path-73-inside-36_287_36" fill="white">
<path d="M160 65H192V97H160V65Z"/>
</mask>
<path d="M160 65V64.5H159.5V65H160ZM192 65H192.5V64.5H192V65ZM192 97V97.5H192.5V97H192ZM160 97H159.5V97.5H160V97ZM160 65.5H192V64.5H160V65.5ZM191.5 65V97H192.5V65H191.5ZM192 96.5H160V97.5H192V96.5ZM160.5 97V65H159.5V97H160.5Z" fill="#331946" fill-opacity="0.27" mask="url(#path-73-inside-36_287_36)"/>
<mask id="path-75-inside-37_287_36" fill="white">
<path d="M192 65H224V97H192V65Z"/>
</mask>
<path d="M192 65V64.5H191.5V65H192ZM224 65H224.5V64.5H224V65ZM224 97V97.5H224.5V97H224ZM192 97H191.5V97.5H192V97ZM192 65.5H224V64.5H192V65.5ZM223.5 65V97H224.5V65H223.5ZM224 96.5H192V97.5H224V96.5ZM192.5 97V65H191.5V97H192.5Z" fill="#331946" fill-opacity="0.27" mask="url(#path-75-inside-37_287_36)"/>
<mask id="path-77-inside-38_287_36" fill="white">
<path d="M224 65H256V97H224V65Z"/>
</mask>
<path d="M224 65V64.5H223.5V65H224ZM256 65H256.5V64.5H256V65ZM256 97V97.5H256.5V97H256ZM224 97H223.5V97.5H224V97ZM224 65.5H256V64.5H224V65.5ZM255.5 65V97H256.5V65H255.5ZM256 96.5H224V97.5H256V96.5ZM224.5 97V65H223.5V97H224.5Z" fill="#331946" fill-opacity="0.27" mask="url(#path-77-inside-38_287_36)"/>
<mask id="path-79-inside-39_287_36" fill="white">
<path d="M256 65H288V97H256V65Z"/>
</mask>
<path d="M256 65V64.5H255.5V65H256ZM288 65H288.5V64.5H288V65ZM288 97V97.5H288.5V97H288ZM256 97H255.5V97.5H256V97ZM256 65.5H288V64.5H256V65.5ZM287.5 65V97H288.5V65H287.5ZM288 96.5H256V97.5H288V96.5ZM256.5 97V65H255.5V97H256.5Z" fill="#331946" fill-opacity="0.27" mask="url(#path-79-inside-39_287_36)"/>
<mask id="path-81-inside-40_287_36" fill="white">
<path d="M288 65H315C317.761 65 320 67.2386 320 70V97H288V65Z"/>
</mask>
<path d="M288 65V64.5H287.5V65H288ZM320 97V97.5H320.5V97H320ZM288 97H287.5V97.5H288V97ZM288 65.5H315V64.5H288V65.5ZM319.5 70V97H320.5V70H319.5ZM320 96.5H288V97.5H320V96.5ZM288.5 97V65H287.5V97H288.5ZM315 65.5C317.485 65.5 319.5 67.5147 319.5 70H320.5C320.5 66.9624 318.038 64.5 315 64.5V65.5Z" fill="#331946" fill-opacity="0.27" mask="url(#path-81-inside-40_287_36)"/>
<mask id="path-83-inside-41_287_36" fill="white">
<path d="M320 70C320 67.2386 322.239 65 325 65H352V97H320V70Z"/>
</mask>
<path d="M352 65H352.5V64.5H352V65ZM352 97V97.5H352.5V97H352ZM320 97H319.5V97.5H320V97ZM325 65.5H352V64.5H325V65.5ZM351.5 65V97H352.5V65H351.5ZM352 96.5H320V97.5H352V96.5ZM320.5 97V70H319.5V97H320.5ZM325 64.5C321.962 64.5 319.5 66.9624 319.5 70H320.5C320.5 67.5147 322.515 65.5 325 65.5V64.5Z" fill="#331946" fill-opacity="0.27" mask="url(#path-83-inside-41_287_36)"/>
<mask id="path-85-inside-42_287_36" fill="white">
<path d="M352 65H384V97H352V65Z"/>
</mask>
<path d="M352 65V64.5H351.5V65H352ZM384 65H384.5V64.5H384V65ZM384 97V97.5H384.5V97H384ZM352 97H351.5V97.5H352V97ZM352 65.5H384V64.5H352V65.5ZM383.5 65V97H384.5V65H383.5ZM384 96.5H352V97.5H384V96.5ZM352.5 97V65H351.5V97H352.5Z" fill="#331946" fill-opacity="0.27" mask="url(#path-85-inside-42_287_36)"/>
<mask id="path-87-inside-43_287_36" fill="white">
<path d="M384 65H416V92C416 94.7614 413.761 97 411 97H384V65Z"/>
</mask>
<path d="M384 65V64.5H383.5V65H384ZM416 65H416.5V64.5H416V65ZM384 97H383.5V97.5H384V97ZM384 65.5H416V64.5H384V65.5ZM415.5 65V92H416.5V65H415.5ZM411 96.5H384V97.5H411V96.5ZM384.5 97V65H383.5V97H384.5ZM415.5 92C415.5 94.4853 413.485 96.5 411 96.5V97.5C414.038 97.5 416.5 95.0376 416.5 92H415.5Z" fill="#331946" fill-opacity="0.27" mask="url(#path-87-inside-43_287_36)"/>
<mask id="path-89-inside-44_287_36" fill="white">
<path d="M416 65H448V97H421C418.239 97 416 94.7614 416 92V65Z"/>
</mask>
<path d="M416 65V64.5H415.5V65H416ZM448 65H448.5V64.5H448V65ZM448 97V97.5H448.5V97H448ZM416 65.5H448V64.5H416V65.5ZM447.5 65V97H448.5V65H447.5ZM448 96.5H421V97.5H448V96.5ZM416.5 92V65H415.5V92H416.5ZM421 96.5C418.515 96.5 416.5 94.4853 416.5 92H415.5C415.5 95.0376 417.962 97.5 421 97.5V96.5Z" fill="#331946" fill-opacity="0.27" mask="url(#path-89-inside-44_287_36)"/>
<mask id="path-91-inside-45_287_36" fill="white">
<path d="M448 65H480V97H448V65Z"/>
</mask>
<path d="M448 65V64.5H447.5V65H448ZM480 65H481V64.5H480V65ZM480 97V97.5H481V97H480ZM448 97H447.5V97.5H448V97ZM448 65.5H480V64.5H448V65.5ZM479 65V97H481V65H479ZM480 96.5H448V97.5H480V96.5ZM448.5 97V65H447.5V97H448.5Z" fill="#331946" fill-opacity="0.27" mask="url(#path-91-inside-45_287_36)"/>
<mask id="path-93-inside-46_287_36" fill="white">
<path d="M0 97H32V129H0V97Z"/>
</mask>
<path d="M0 97V96.5H-0.5V97H0ZM32 97H32.5V96.5H32V97ZM32 129V129.5H32.5V129H32ZM0 129H-0.5V129.5H0V129ZM0 97.5H32V96.5H0V97.5ZM31.5 97V129H32.5V97H31.5ZM32 128.5H0V129.5H32V128.5ZM0.5 129V97H-0.5V129H0.5Z" fill="#331946" fill-opacity="0.27" mask="url(#path-93-inside-46_287_36)"/>
<mask id="path-95-inside-47_287_36" fill="white">
<path d="M32 97H64V129H32V97Z"/>
</mask>
<path d="M32 97V96.5H31.5V97H32ZM64 97H64.5V96.5H64V97ZM64 129V129.5H64.5V129H64ZM32 129H31.5V129.5H32V129ZM32 97.5H64V96.5H32V97.5ZM63.5 97V129H64.5V97H63.5ZM64 128.5H32V129.5H64V128.5ZM32.5 129V97H31.5V129H32.5Z" fill="#331946" fill-opacity="0.27" mask="url(#path-95-inside-47_287_36)"/>
<mask id="path-97-inside-48_287_36" fill="white">
<path d="M64 97H91C93.7614 97 96 99.2386 96 102V129H64V97Z"/>
</mask>
<path d="M64 97V96.5H63.5V97H64ZM96 129V129.5H96.5V129H96ZM64 129H63.5V129.5H64V129ZM64 97.5H91V96.5H64V97.5ZM95.5 102V129H96.5V102H95.5ZM96 128.5H64V129.5H96V128.5ZM64.5 129V97H63.5V129H64.5ZM91 97.5C93.4853 97.5 95.5 99.5147 95.5 102H96.5C96.5 98.9624 94.0376 96.5 91 96.5V97.5Z" fill="#331946" fill-opacity="0.27" mask="url(#path-97-inside-48_287_36)"/>
<mask id="path-99-inside-49_287_36" fill="white">
<path d="M96 102C96 99.2386 98.2386 97 101 97H128V129H96V102Z"/>
</mask>
<path d="M128 97H128.5V96.5H128V97ZM128 129V129.5H128.5V129H128ZM96 129H95.5V129.5H96V129ZM101 97.5H128V96.5H101V97.5ZM127.5 97V129H128.5V97H127.5ZM128 128.5H96V129.5H128V128.5ZM96.5 129V102H95.5V129H96.5ZM101 96.5C97.9624 96.5 95.5 98.9624 95.5 102H96.5C96.5 99.5147 98.5147 97.5 101 97.5V96.5Z" fill="#331946" fill-opacity="0.27" mask="url(#path-99-inside-49_287_36)"/>
<mask id="path-101-inside-50_287_36" fill="white">
<path d="M128 97H160V129H128V97Z"/>
</mask>
<path d="M128 97V96.5H127.5V97H128ZM160 97H160.5V96.5H160V97ZM160 129V129.5H160.5V129H160ZM128 129H127.5V129.5H128V129ZM128 97.5H160V96.5H128V97.5ZM159.5 97V129H160.5V97H159.5ZM160 128.5H128V129.5H160V128.5ZM128.5 129V97H127.5V129H128.5Z" fill="#331946" fill-opacity="0.27" mask="url(#path-101-inside-50_287_36)"/>
<mask id="path-103-inside-51_287_36" fill="white">
<path d="M160 97H192V129H160V97Z"/>
</mask>
<path d="M160 97V96.5H159.5V97H160ZM192 97H192.5V96.5H192V97ZM192 129V129.5H192.5V129H192ZM160 129H159.5V129.5H160V129ZM160 97.5H192V96.5H160V97.5ZM191.5 97V129H192.5V97H191.5ZM192 128.5H160V129.5H192V128.5ZM160.5 129V97H159.5V129H160.5Z" fill="#331946" fill-opacity="0.27" mask="url(#path-103-inside-51_287_36)"/>
<mask id="path-105-inside-52_287_36" fill="white">
<path d="M192 97H224V129H192V97Z"/>
</mask>
<path d="M192 97V96.5H191.5V97H192ZM224 97H224.5V96.5H224V97ZM224 129V129.5H224.5V129H224ZM192 129H191.5V129.5H192V129ZM192 97.5H224V96.5H192V97.5ZM223.5 97V129H224.5V97H223.5ZM224 128.5H192V129.5H224V128.5ZM192.5 129V97H191.5V129H192.5Z" fill="#331946" fill-opacity="0.27" mask="url(#path-105-inside-52_287_36)"/>
<mask id="path-107-inside-53_287_36" fill="white">
<path d="M224 97H256V129H224V97Z"/>
</mask>
<path d="M224 97V96.5H223.5V97H224ZM256 97H256.5V96.5H256V97ZM256 129V129.5H256.5V129H256ZM224 129H223.5V129.5H224V129ZM224 97.5H256V96.5H224V97.5ZM255.5 97V129H256.5V97H255.5ZM256 128.5H224V129.5H256V128.5ZM224.5 129V97H223.5V129H224.5Z" fill="#331946" fill-opacity="0.27" mask="url(#path-107-inside-53_287_36)"/>
<mask id="path-109-inside-54_287_36" fill="white">
<path d="M256 97H288V129H256V97Z"/>
</mask>
<path d="M256 97V96.5H255.5V97H256ZM288 97H288.5V96.5H288V97ZM288 129V129.5H288.5V129H288ZM256 129H255.5V129.5H256V129ZM256 97.5H288V96.5H256V97.5ZM287.5 97V129H288.5V97H287.5ZM288 128.5H256V129.5H288V128.5ZM256.5 129V97H255.5V129H256.5Z" fill="#331946" fill-opacity="0.27" mask="url(#path-109-inside-54_287_36)"/>
<mask id="path-111-inside-55_287_36" fill="white">
<path d="M288 97H320V129H288V97Z"/>
</mask>
<path d="M288 97V96.5H287.5V97H288ZM320 97H320.5V96.5H320V97ZM320 129V129.5H320.5V129H320ZM288 129H287.5V129.5H288V129ZM288 97.5H320V96.5H288V97.5ZM319.5 97V129H320.5V97H319.5ZM320 128.5H288V129.5H320V128.5ZM288.5 129V97H287.5V129H288.5Z" fill="#331946" fill-opacity="0.27" mask="url(#path-111-inside-55_287_36)"/>
<mask id="path-113-inside-56_287_36" fill="white">
<path d="M320 97H352V129H320V97Z"/>
</mask>
<path d="M320 97V96.5H319.5V97H320ZM352 97H352.5V96.5H352V97ZM352 129V129.5H352.5V129H352ZM320 129H319.5V129.5H320V129ZM320 97.5H352V96.5H320V97.5ZM351.5 97V129H352.5V97H351.5ZM352 128.5H320V129.5H352V128.5ZM320.5 129V97H319.5V129H320.5Z" fill="#331946" fill-opacity="0.27" mask="url(#path-113-inside-56_287_36)"/>
<mask id="path-115-inside-57_287_36" fill="white">
<path d="M352 97H384V129H352V97Z"/>
</mask>
<path d="M352 97V96.5H351.5V97H352ZM384 97H384.5V96.5H384V97ZM384 129V129.5H384.5V129H384ZM352 129H351.5V129.5H352V129ZM352 97.5H384V96.5H352V97.5ZM383.5 97V129H384.5V97H383.5ZM384 128.5H352V129.5H384V128.5ZM352.5 129V97H351.5V129H352.5Z" fill="#331946" fill-opacity="0.27" mask="url(#path-115-inside-57_287_36)"/>
<mask id="path-117-inside-58_287_36" fill="white">
<path d="M384 97H411C413.761 97 416 99.2386 416 102V129H384V97Z"/>
</mask>
<path d="M384 97V96.5H383.5V97H384ZM416 129V129.5H416.5V129H416ZM384 129H383.5V129.5H384V129ZM384 97.5H411V96.5H384V97.5ZM415.5 102V129H416.5V102H415.5ZM416 128.5H384V129.5H416V128.5ZM384.5 129V97H383.5V129H384.5ZM411 97.5C413.485 97.5 415.5 99.5147 415.5 102H416.5C416.5 98.9624 414.038 96.5 411 96.5V97.5Z" fill="#331946" fill-opacity="0.27" mask="url(#path-117-inside-58_287_36)"/>
<mask id="path-119-inside-59_287_36" fill="white">
<path d="M416 102C416 99.2386 418.239 97 421 97H448V129H416V102Z"/>
</mask>
<path d="M448 97H448.5V96.5H448V97ZM448 129V129.5H448.5V129H448ZM416 129H415.5V129.5H416V129ZM421 97.5H448V96.5H421V97.5ZM447.5 97V129H448.5V97H447.5ZM448 128.5H416V129.5H448V128.5ZM416.5 129V102H415.5V129H416.5ZM421 96.5C417.962 96.5 415.5 98.9624 415.5 102H416.5C416.5 99.5147 418.515 97.5 421 97.5V96.5Z" fill="#331946" fill-opacity="0.27" mask="url(#path-119-inside-59_287_36)"/>
<mask id="path-121-inside-60_287_36" fill="white">
<path d="M448 97H480V129H448V97Z"/>
</mask>
<path d="M448 97V96.5H447.5V97H448ZM480 97H481V96.5H480V97ZM480 129V129.5H481V129H480ZM448 129H447.5V129.5H448V129ZM448 97.5H480V96.5H448V97.5ZM479 97V129H481V97H479ZM480 128.5H448V129.5H480V128.5ZM448.5 129V97H447.5V129H448.5Z" fill="#331946" fill-opacity="0.27" mask="url(#path-121-inside-60_287_36)"/>
<circle cx="400" cy="113" r="12" fill="#9A59BA" fill-opacity="0.3"/>
<circle cx="400" cy="113" r="8" fill="#9A59BA" fill-opacity="0.4"/>
<circle cx="400" cy="113" r="4" fill="#9A59BA"/>
<mask id="path-126-inside-61_287_36" fill="white">
<path d="M0 129H32V161H0V129Z"/>
</mask>
<path d="M0 129V128.5H-0.5V129H0ZM32 129H32.5V128.5H32V129ZM32 161V161.5H32.5V161H32ZM0 161H-0.5V161.5H0V161ZM0 129.5H32V128.5H0V129.5ZM31.5 129V161H32.5V129H31.5ZM32 160.5H0V161.5H32V160.5ZM0.5 161V129H-0.5V161H0.5Z" fill="#331946" fill-opacity="0.27" mask="url(#path-126-inside-61_287_36)"/>
<mask id="path-128-inside-62_287_36" fill="white">
<path d="M32 129H64V161H32V129Z"/>
</mask>
<path d="M32 129V128.5H31.5V129H32ZM64 129H64.5V128.5H64V129ZM64 161V161.5H64.5V161H64ZM32 161H31.5V161.5H32V161ZM32 129.5H64V128.5H32V129.5ZM63.5 129V161H64.5V129H63.5ZM64 160.5H32V161.5H64V160.5ZM32.5 161V129H31.5V161H32.5Z" fill="#331946" fill-opacity="0.27" mask="url(#path-128-inside-62_287_36)"/>
<mask id="path-130-inside-63_287_36" fill="white">
<path d="M64 129H96V161H64V129Z"/>
</mask>
<path d="M64 129V128.5H63.5V129H64ZM96 129H96.5V128.5H96V129ZM96 161V161.5H96.5V161H96ZM64 161H63.5V161.5H64V161ZM64 129.5H96V128.5H64V129.5ZM95.5 129V161H96.5V129H95.5ZM96 160.5H64V161.5H96V160.5ZM64.5 161V129H63.5V161H64.5Z" fill="#331946" fill-opacity="0.27" mask="url(#path-130-inside-63_287_36)"/>
<mask id="path-132-inside-64_287_36" fill="white">
<path d="M96 129H128V161H96V129Z"/>
</mask>
<path d="M96 129V128.5H95.5V129H96ZM128 129H128.5V128.5H128V129ZM128 161V161.5H128.5V161H128ZM96 161H95.5V161.5H96V161ZM96 129.5H128V128.5H96V129.5ZM127.5 129V161H128.5V129H127.5ZM128 160.5H96V161.5H128V160.5ZM96.5 161V129H95.5V161H96.5Z" fill="#331946" fill-opacity="0.27" mask="url(#path-132-inside-64_287_36)"/>
<mask id="path-134-inside-65_287_36" fill="white">
<path d="M128 129H160V161H128V129Z"/>
</mask>
<path d="M128 129V128.5H127.5V129H128ZM160 129H160.5V128.5H160V129ZM160 161V161.5H160.5V161H160ZM128 161H127.5V161.5H128V161ZM128 129.5H160V128.5H128V129.5ZM159.5 129V161H160.5V129H159.5ZM160 160.5H128V161.5H160V160.5ZM128.5 161V129H127.5V161H128.5Z" fill="#331946" fill-opacity="0.27" mask="url(#path-134-inside-65_287_36)"/>
<mask id="path-136-inside-66_287_36" fill="white">
<path d="M160 129H192V161H160V129Z"/>
</mask>
<path d="M160 129V128.5H159.5V129H160ZM192 129H192.5V128.5H192V129ZM192 161V161.5H192.5V161H192ZM160 161H159.5V161.5H160V161ZM160 129.5H192V128.5H160V129.5ZM191.5 129V161H192.5V129H191.5ZM192 160.5H160V161.5H192V160.5ZM160.5 161V129H159.5V161H160.5Z" fill="#331946" fill-opacity="0.27" mask="url(#path-136-inside-66_287_36)"/>
<mask id="path-138-inside-67_287_36" fill="white">
<path d="M192 129H224V161H192V129Z"/>
</mask>
<path d="M192 129V128.5H191.5V129H192ZM224 129H224.5V128.5H224V129ZM224 161V161.5H224.5V161H224ZM192 161H191.5V161.5H192V161ZM192 129.5H224V128.5H192V129.5ZM223.5 129V161H224.5V129H223.5ZM224 160.5H192V161.5H224V160.5ZM192.5 161V129H191.5V161H192.5Z" fill="#331946" fill-opacity="0.27" mask="url(#path-138-inside-67_287_36)"/>
<mask id="path-140-inside-68_287_36" fill="white">
<path d="M224 129H256V161H224V129Z"/>
</mask>
<path d="M224 129V128.5H223.5V129H224ZM256 129H256.5V128.5H256V129ZM256 161V161.5H256.5V161H256ZM224 161H223.5V161.5H224V161ZM224 129.5H256V128.5H224V129.5ZM255.5 129V161H256.5V129H255.5ZM256 160.5H224V161.5H256V160.5ZM224.5 161V129H223.5V161H224.5Z" fill="#331946" fill-opacity="0.27" mask="url(#path-140-inside-68_287_36)"/>
<mask id="path-142-inside-69_287_36" fill="white">
<path d="M256 129H288V161H256V129Z"/>
</mask>
<path d="M256 129V128.5H255.5V129H256ZM288 129H288.5V128.5H288V129ZM288 161V161.5H288.5V161H288ZM256 161H255.5V161.5H256V161ZM256 129.5H288V128.5H256V129.5ZM287.5 129V161H288.5V129H287.5ZM288 160.5H256V161.5H288V160.5ZM256.5 161V129H255.5V161H256.5Z" fill="#331946" fill-opacity="0.27" mask="url(#path-142-inside-69_287_36)"/>
<mask id="path-144-inside-70_287_36" fill="white">
<path d="M288 129H320V161H288V129Z"/>
</mask>
<path d="M288 129V128.5H287.5V129H288ZM320 129H320.5V128.5H320V129ZM320 161V161.5H320.5V161H320ZM288 161H287.5V161.5H288V161ZM288 129.5H320V128.5H288V129.5ZM319.5 129V161H320.5V129H319.5ZM320 160.5H288V161.5H320V160.5ZM288.5 161V129H287.5V161H288.5Z" fill="#331946" fill-opacity="0.27" mask="url(#path-144-inside-70_287_36)"/>
<mask id="path-146-inside-71_287_36" fill="white">
<path d="M320 129H352V161H320V129Z"/>
</mask>
<path d="M320 129V128.5H319.5V129H320ZM352 129H352.5V128.5H352V129ZM352 161V161.5H352.5V161H352ZM320 161H319.5V161.5H320V161ZM320 129.5H352V128.5H320V129.5ZM351.5 129V161H352.5V129H351.5ZM352 160.5H320V161.5H352V160.5ZM320.5 161V129H319.5V161H320.5Z" fill="#331946" fill-opacity="0.27" mask="url(#path-146-inside-71_287_36)"/>
<mask id="path-148-inside-72_287_36" fill="white">
<path d="M352 129H384V161H352V129Z"/>
</mask>
<path d="M352 129V128.5H351.5V129H352ZM384 129H384.5V128.5H384V129ZM384 161V161.5H384.5V161H384ZM352 161H351.5V161.5H352V161ZM352 129.5H384V128.5H352V129.5ZM383.5 129V161H384.5V129H383.5ZM384 160.5H352V161.5H384V160.5ZM352.5 161V129H351.5V161H352.5Z" fill="#331946" fill-opacity="0.27" mask="url(#path-148-inside-72_287_36)"/>
<mask id="path-150-inside-73_287_36" fill="white">
<path d="M384 129H416V161H384V129Z"/>
</mask>
<path d="M384 129V128.5H383.5V129H384ZM416 129H416.5V128.5H416V129ZM416 161V161.5H416.5V161H416ZM384 161H383.5V161.5H384V161ZM384 129.5H416V128.5H384V129.5ZM415.5 129V161H416.5V129H415.5ZM416 160.5H384V161.5H416V160.5ZM384.5 161V129H383.5V161H384.5Z" fill="#331946" fill-opacity="0.27" mask="url(#path-150-inside-73_287_36)"/>
<mask id="path-152-inside-74_287_36" fill="white">
<path d="M416 129H448V161H416V129Z"/>
</mask>
<path d="M416 129V128.5H415.5V129H416ZM448 129H448.5V128.5H448V129ZM448 161V161.5H448.5V161H448ZM416 161H415.5V161.5H416V161ZM416 129.5H448V128.5H416V129.5ZM447.5 129V161H448.5V129H447.5ZM448 160.5H416V161.5H448V160.5ZM416.5 161V129H415.5V161H416.5Z" fill="#331946" fill-opacity="0.27" mask="url(#path-152-inside-74_287_36)"/>
<mask id="path-154-inside-75_287_36" fill="white">
<path d="M448 129H480V161H448V129Z"/>
</mask>
<path d="M448 129V128.5H447.5V129H448ZM480 129H481V128.5H480V129ZM480 161V161.5H481V161H480ZM448 161H447.5V161.5H448V161ZM448 129.5H480V128.5H448V129.5ZM479 129V161H481V129H479ZM480 160.5H448V161.5H480V160.5ZM448.5 161V129H447.5V161H448.5Z" fill="#331946" fill-opacity="0.27" mask="url(#path-154-inside-75_287_36)"/>
<circle cx="16" cy="145" r="12" fill="#9A59BA" fill-opacity="0.3"/>
<circle cx="16" cy="145" r="8" fill="#9A59BA" fill-opacity="0.4"/>
<circle cx="16" cy="145" r="4" fill="#9A59BA"/>
<mask id="path-159-inside-76_287_36" fill="white">
<path d="M0 161H32V193H0V161Z"/>
</mask>
<path d="M0 161V160.5H-0.5V161H0ZM32 161H32.5V160.5H32V161ZM32 193V193.5H32.5V193H32ZM0 193H-0.5V193.5H0V193ZM0 161.5H32V160.5H0V161.5ZM31.5 161V193H32.5V161H31.5ZM32 192.5H0V193.5H32V192.5ZM0.5 193V161H-0.5V193H0.5Z" fill="#331946" fill-opacity="0.27" mask="url(#path-159-inside-76_287_36)"/>
<mask id="path-161-inside-77_287_36" fill="white">
<path d="M32 161H64V193H32V161Z"/>
</mask>
<path d="M32 161V160.5H31.5V161H32ZM64 161H64.5V160.5H64V161ZM64 193V193.5H64.5V193H64ZM32 193H31.5V193.5H32V193ZM32 161.5H64V160.5H32V161.5ZM63.5 161V193H64.5V161H63.5ZM64 192.5H32V193.5H64V192.5ZM32.5 193V161H31.5V193H32.5Z" fill="#331946" fill-opacity="0.27" mask="url(#path-161-inside-77_287_36)"/>
<mask id="path-163-inside-78_287_36" fill="white">
<path d="M64 161H96V193H64V161Z"/>
</mask>
<path d="M64 161V160.5H63.5V161H64ZM96 161H96.5V160.5H96V161ZM96 193V193.5H96.5V193H96ZM64 193H63.5V193.5H64V193ZM64 161.5H96V160.5H64V161.5ZM95.5 161V193H96.5V161H95.5ZM96 192.5H64V193.5H96V192.5ZM64.5 193V161H63.5V193H64.5Z" fill="#331946" fill-opacity="0.27" mask="url(#path-163-inside-78_287_36)"/>
<mask id="path-165-inside-79_287_36" fill="white">
<path d="M96 161H128V193H96V161Z"/>
</mask>
<path d="M96 161V160.5H95.5V161H96ZM128 161H128.5V160.5H128V161ZM128 193V193.5H128.5V193H128ZM96 193H95.5V193.5H96V193ZM96 161.5H128V160.5H96V161.5ZM127.5 161V193H128.5V161H127.5ZM128 192.5H96V193.5H128V192.5ZM96.5 193V161H95.5V193H96.5Z" fill="#331946" fill-opacity="0.27" mask="url(#path-165-inside-79_287_36)"/>
<mask id="path-167-inside-80_287_36" fill="white">
<path d="M128 161H160V193H128V161Z"/>
</mask>
<path d="M128 161V160.5H127.5V161H128ZM160 161H160.5V160.5H160V161ZM160 193V193.5H160.5V193H160ZM128 193H127.5V193.5H128V193ZM128 161.5H160V160.5H128V161.5ZM159.5 161V193H160.5V161H159.5ZM160 192.5H128V193.5H160V192.5ZM128.5 193V161H127.5V193H128.5Z" fill="#331946" fill-opacity="0.27" mask="url(#path-167-inside-80_287_36)"/>
<mask id="path-169-inside-81_287_36" fill="white">
<path d="M160 161H192V193H160V161Z"/>
</mask>
<path d="M160 161V160.5H159.5V161H160ZM192 161H192.5V160.5H192V161ZM192 193V193.5H192.5V193H192ZM160 193H159.5V193.5H160V193ZM160 161.5H192V160.5H160V161.5ZM191.5 161V193H192.5V161H191.5ZM192 192.5H160V193.5H192V192.5ZM160.5 193V161H159.5V193H160.5Z" fill="#331946" fill-opacity="0.27" mask="url(#path-169-inside-81_287_36)"/>
<mask id="path-171-inside-82_287_36" fill="white">
<path d="M192 161H224V193H192V161Z"/>
</mask>
<path d="M192 161V160.5H191.5V161H192ZM224 161H224.5V160.5H224V161ZM224 193V193.5H224.5V193H224ZM192 193H191.5V193.5H192V193ZM192 161.5H224V160.5H192V161.5ZM223.5 161V193H224.5V161H223.5ZM224 192.5H192V193.5H224V192.5ZM192.5 193V161H191.5V193H192.5Z" fill="#331946" fill-opacity="0.27" mask="url(#path-171-inside-82_287_36)"/>
<mask id="path-173-inside-83_287_36" fill="white">
<path d="M224 161H256V193H224V161Z"/>
</mask>
<path d="M224 161V160.5H223.5V161H224ZM256 161H256.5V160.5H256V161ZM256 193V193.5H256.5V193H256ZM224 193H223.5V193.5H224V193ZM224 161.5H256V160.5H224V161.5ZM255.5 161V193H256.5V161H255.5ZM256 192.5H224V193.5H256V192.5ZM224.5 193V161H223.5V193H224.5Z" fill="#331946" fill-opacity="0.27" mask="url(#path-173-inside-83_287_36)"/>
<mask id="path-175-inside-84_287_36" fill="white">
<path d="M256 161H288V193H256V161Z"/>
</mask>
<path d="M256 161V160.5H255.5V161H256ZM288 161H288.5V160.5H288V161ZM288 193V193.5H288.5V193H288ZM256 193H255.5V193.5H256V193ZM256 161.5H288V160.5H256V161.5ZM287.5 161V193H288.5V161H287.5ZM288 192.5H256V193.5H288V192.5ZM256.5 193V161H255.5V193H256.5Z" fill="#331946" fill-opacity="0.27" mask="url(#path-175-inside-84_287_36)"/>
<mask id="path-177-inside-85_287_36" fill="white">
<path d="M288 161H320V193H288V161Z"/>
</mask>
<path d="M288 161V160.5H287.5V161H288ZM320 161H320.5V160.5H320V161ZM320 193V193.5H320.5V193H320ZM288 193H287.5V193.5H288V193ZM288 161.5H320V160.5H288V161.5ZM319.5 161V193H320.5V161H319.5ZM320 192.5H288V193.5H320V192.5ZM288.5 193V161H287.5V193H288.5Z" fill="#331946" fill-opacity="0.27" mask="url(#path-177-inside-85_287_36)"/>
<mask id="path-179-inside-86_287_36" fill="white">
<path d="M320 161H352V193H320V161Z"/>
</mask>
<path d="M320 161V160.5H319.5V161H320ZM352 161H352.5V160.5H352V161ZM352 193V193.5H352.5V193H352ZM320 193H319.5V193.5H320V193ZM320 161.5H352V160.5H320V161.5ZM351.5 161V193H352.5V161H351.5ZM352 192.5H320V193.5H352V192.5ZM320.5 193V161H319.5V193H320.5Z" fill="#331946" fill-opacity="0.27" mask="url(#path-179-inside-86_287_36)"/>
<mask id="path-181-inside-87_287_36" fill="white">
<path d="M352 161H384V193H352V161Z"/>
</mask>
<path d="M352 161V160.5H351.5V161H352ZM384 161H384.5V160.5H384V161ZM384 193V193.5H384.5V193H384ZM352 193H351.5V193.5H352V193ZM352 161.5H384V160.5H352V161.5ZM383.5 161V193H384.5V161H383.5ZM384 192.5H352V193.5H384V192.5ZM352.5 193V161H351.5V193H352.5Z" fill="#331946" fill-opacity="0.27" mask="url(#path-181-inside-87_287_36)"/>
<mask id="path-183-inside-88_287_36" fill="white">
<path d="M384 161H416V193H384V161Z"/>
</mask>
<path d="M384 161V160.5H383.5V161H384ZM416 161H416.5V160.5H416V161ZM416 193V193.5H416.5V193H416ZM384 193H383.5V193.5H384V193ZM384 161.5H416V160.5H384V161.5ZM415.5 161V193H416.5V161H415.5ZM416 192.5H384V193.5H416V192.5ZM384.5 193V161H383.5V193H384.5Z" fill="#331946" fill-opacity="0.27" mask="url(#path-183-inside-88_287_36)"/>
<mask id="path-185-inside-89_287_36" fill="white">
<path d="M416 161H448V193H416V161Z"/>
</mask>
<path d="M416 161V160.5H415.5V161H416ZM448 161H448.5V160.5H448V161ZM448 193V193.5H448.5V193H448ZM416 193H415.5V193.5H416V193ZM416 161.5H448V160.5H416V161.5ZM447.5 161V193H448.5V161H447.5ZM448 192.5H416V193.5H448V192.5ZM416.5 193V161H415.5V193H416.5Z" fill="#331946" fill-opacity="0.27" mask="url(#path-185-inside-89_287_36)"/>
<mask id="path-187-inside-90_287_36" fill="white">
<path d="M448 161H480V193H448V161Z"/>
</mask>
<path d="M448 161V160.5H447.5V161H448ZM480 161H481V160.5H480V161ZM480 193V193.5H481V193H480ZM448 193H447.5V193.5H448V193ZM448 161.5H480V160.5H448V161.5ZM479 161V193H481V161H479ZM480 192.5H448V193.5H480V192.5ZM448.5 193V161H447.5V193H448.5Z" fill="#331946" fill-opacity="0.27" mask="url(#path-187-inside-90_287_36)"/>
<mask id="path-189-inside-91_287_36" fill="white">
<path d="M0 193H32V225H0V193Z"/>
</mask>
<path d="M0 193V192.5H-0.5V193H0ZM32 193H32.5V192.5H32V193ZM32 225V225.5H32.5V225H32ZM0 225H-0.5V225.5H0V225ZM0 193.5H32V192.5H0V193.5ZM31.5 193V225H32.5V193H31.5ZM32 224.5H0V225.5H32V224.5ZM0.5 225V193H-0.5V225H0.5Z" fill="#331946" fill-opacity="0.27" mask="url(#path-189-inside-91_287_36)"/>
<mask id="path-191-inside-92_287_36" fill="white">
<path d="M32 193H64V225H32V193Z"/>
</mask>
<path d="M32 193V192.5H31.5V193H32ZM64 193H64.5V192.5H64V193ZM64 225V225.5H64.5V225H64ZM32 225H31.5V225.5H32V225ZM32 193.5H64V192.5H32V193.5ZM63.5 193V225H64.5V193H63.5ZM64 224.5H32V225.5H64V224.5ZM32.5 225V193H31.5V225H32.5Z" fill="#331946" fill-opacity="0.27" mask="url(#path-191-inside-92_287_36)"/>
<mask id="path-193-inside-93_287_36" fill="white">
<path d="M64 193H96V225H64V193Z"/>
</mask>
<path d="M64 193V192.5H63.5V193H64ZM96 193H96.5V192.5H96V193ZM96 225V225.5H96.5V225H96ZM64 225H63.5V225.5H64V225ZM64 193.5H96V192.5H64V193.5ZM95.5 193V225H96.5V193H95.5ZM96 224.5H64V225.5H96V224.5ZM64.5 225V193H63.5V225H64.5Z" fill="#331946" fill-opacity="0.27" mask="url(#path-193-inside-93_287_36)"/>
<mask id="path-195-inside-94_287_36" fill="white">
<path d="M96 193H128V225H96V193Z"/>
</mask>
<path d="M96 193V192.5H95.5V193H96ZM128 193H128.5V192.5H128V193ZM128 225V225.5H128.5V225H128ZM96 225H95.5V225.5H96V225ZM96 193.5H128V192.5H96V193.5ZM127.5 193V225H128.5V193H127.5ZM128 224.5H96V225.5H128V224.5ZM96.5 225V193H95.5V225H96.5Z" fill="#331946" fill-opacity="0.27" mask="url(#path-195-inside-94_287_36)"/>
<mask id="path-197-inside-95_287_36" fill="white">
<path d="M128 193H160V225H128V193Z"/>
</mask>
<path d="M128 193V192.5H127.5V193H128ZM160 193H160.5V192.5H160V193ZM160 225V225.5H160.5V225H160ZM128 225H127.5V225.5H128V225ZM128 193.5H160V192.5H128V193.5ZM159.5 193V225H160.5V193H159.5ZM160 224.5H128V225.5H160V224.5ZM128.5 225V193H127.5V225H128.5Z" fill="#331946" fill-opacity="0.27" mask="url(#path-197-inside-95_287_36)"/>
<mask id="path-199-inside-96_287_36" fill="white">
<path d="M160 193H192V225H160V193Z"/>
</mask>
<path d="M160 193V192.5H159.5V193H160ZM192 193H192.5V192.5H192V193ZM192 225V225.5H192.5V225H192ZM160 225H159.5V225.5H160V225ZM160 193.5H192V192.5H160V193.5ZM191.5 193V225H192.5V193H191.5ZM192 224.5H160V225.5H192V224.5ZM160.5 225V193H159.5V225H160.5Z" fill="#331946" fill-opacity="0.27" mask="url(#path-199-inside-96_287_36)"/>
<mask id="path-201-inside-97_287_36" fill="white">
<path d="M192 193H224V225H192V193Z"/>
</mask>
<path d="M192 193V192.5H191.5V193H192ZM224 193H224.5V192.5H224V193ZM224 225V225.5H224.5V225H224ZM192 225H191.5V225.5H192V225ZM192 193.5H224V192.5H192V193.5ZM223.5 193V225H224.5V193H223.5ZM224 224.5H192V225.5H224V224.5ZM192.5 225V193H191.5V225H192.5Z" fill="#331946" fill-opacity="0.27" mask="url(#path-201-inside-97_287_36)"/>
<mask id="path-203-inside-98_287_36" fill="white">
<path d="M224 193H256V225H224V193Z"/>
</mask>
<path d="M224 193V192.5H223.5V193H224ZM256 193H256.5V192.5H256V193ZM256 225V225.5H256.5V225H256ZM224 225H223.5V225.5H224V225ZM224 193.5H256V192.5H224V193.5ZM255.5 193V225H256.5V193H255.5ZM256 224.5H224V225.5H256V224.5ZM224.5 225V193H223.5V225H224.5Z" fill="#331946" fill-opacity="0.27" mask="url(#path-203-inside-98_287_36)"/>
<mask id="path-205-inside-99_287_36" fill="white">
<path d="M256 193H288V225H256V193Z"/>
</mask>
<path d="M256 193V192.5H255.5V193H256ZM288 193H288.5V192.5H288V193ZM288 225V225.5H288.5V225H288ZM256 225H255.5V225.5H256V225ZM256 193.5H288V192.5H256V193.5ZM287.5 193V225H288.5V193H287.5ZM288 224.5H256V225.5H288V224.5ZM256.5 225V193H255.5V225H256.5Z" fill="#331946" fill-opacity="0.27" mask="url(#path-205-inside-99_287_36)"/>
<mask id="path-207-inside-100_287_36" fill="white">
<path d="M288 193H320V225H288V193Z"/>
</mask>
<path d="M288 193V192.5H287.5V193H288ZM320 193H320.5V192.5H320V193ZM320 225V225.5H320.5V225H320ZM288 225H287.5V225.5H288V225ZM288 193.5H320V192.5H288V193.5ZM319.5 193V225H320.5V193H319.5ZM320 224.5H288V225.5H320V224.5ZM288.5 225V193H287.5V225H288.5Z" fill="#331946" fill-opacity="0.27" mask="url(#path-207-inside-100_287_36)"/>
<mask id="path-209-inside-101_287_36" fill="white">
<path d="M320 193H352V225H320V193Z"/>
</mask>
<path d="M320 193V192.5H319.5V193H320ZM352 193H352.5V192.5H352V193ZM352 225V225.5H352.5V225H352ZM320 225H319.5V225.5H320V225ZM320 193.5H352V192.5H320V193.5ZM351.5 193V225H352.5V193H351.5ZM352 224.5H320V225.5H352V224.5ZM320.5 225V193H319.5V225H320.5Z" fill="#331946" fill-opacity="0.27" mask="url(#path-209-inside-101_287_36)"/>
<mask id="path-211-inside-102_287_36" fill="white">
<path d="M352 193H384V225H352V193Z"/>
</mask>
<path d="M352 193V192.5H351.5V193H352ZM384 193H384.5V192.5H384V193ZM384 225V225.5H384.5V225H384ZM352 225H351.5V225.5H352V225ZM352 193.5H384V192.5H352V193.5ZM383.5 193V225H384.5V193H383.5ZM384 224.5H352V225.5H384V224.5ZM352.5 225V193H351.5V225H352.5Z" fill="#331946" fill-opacity="0.27" mask="url(#path-211-inside-102_287_36)"/>
<mask id="path-213-inside-103_287_36" fill="white">
<path d="M384 193H416V225H384V193Z"/>
</mask>
<path d="M384 193V192.5H383.5V193H384ZM416 193H416.5V192.5H416V193ZM416 225V225.5H416.5V225H416ZM384 225H383.5V225.5H384V225ZM384 193.5H416V192.5H384V193.5ZM415.5 193V225H416.5V193H415.5ZM416 224.5H384V225.5H416V224.5ZM384.5 225V193H383.5V225H384.5Z" fill="#331946" fill-opacity="0.27" mask="url(#path-213-inside-103_287_36)"/>
<mask id="path-215-inside-104_287_36" fill="white">
<path d="M416 193H448V225H416V193Z"/>
</mask>
<path d="M416 193V192.5H415.5V193H416ZM448 193H448.5V192.5H448V193ZM448 225V225.5H448.5V225H448ZM416 225H415.5V225.5H416V225ZM416 193.5H448V192.5H416V193.5ZM447.5 193V225H448.5V193H447.5ZM448 224.5H416V225.5H448V224.5ZM416.5 225V193H415.5V225H416.5Z" fill="#331946" fill-opacity="0.27" mask="url(#path-215-inside-104_287_36)"/>
<mask id="path-217-inside-105_287_36" fill="white">
<path d="M448 193H480V225H448V193Z"/>
</mask>
<path d="M448 193V192.5H447.5V193H448ZM480 193H481V192.5H480V193ZM480 225V225.5H481V225H480ZM448 225H447.5V225.5H448V225ZM448 193.5H480V192.5H448V193.5ZM479 193V225H481V193H479ZM480 224.5H448V225.5H480V224.5ZM448.5 225V193H447.5V225H448.5Z" fill="#331946" fill-opacity="0.27" mask="url(#path-217-inside-105_287_36)"/>
<mask id="path-219-inside-106_287_36" fill="white">
<path d="M0 225H32V257H0V225Z"/>
</mask>
<path d="M0 225V224.5H-0.5V225H0ZM32 225H32.5V224.5H32V225ZM32 257V257.5H32.5V257H32ZM0 257H-0.5V257.5H0V257ZM0 225.5H32V224.5H0V225.5ZM31.5 225V257H32.5V225H31.5ZM32 256.5H0V257.5H32V256.5ZM0.5 257V225H-0.5V257H0.5Z" fill="#331946" fill-opacity="0.27" mask="url(#path-219-inside-106_287_36)"/>
<mask id="path-221-inside-107_287_36" fill="white">
<path d="M32 225H64V257H32V225Z"/>
</mask>
<path d="M32 225V224.5H31.5V225H32ZM64 225H64.5V224.5H64V225ZM64 257V257.5H64.5V257H64ZM32 257H31.5V257.5H32V257ZM32 225.5H64V224.5H32V225.5ZM63.5 225V257H64.5V225H63.5ZM64 256.5H32V257.5H64V256.5ZM32.5 257V225H31.5V257H32.5Z" fill="#331946" fill-opacity="0.27" mask="url(#path-221-inside-107_287_36)"/>
<mask id="path-223-inside-108_287_36" fill="white">
<path d="M64 225H96V257H64V225Z"/>
</mask>
<path d="M64 225V224.5H63.5V225H64ZM96 225H96.5V224.5H96V225ZM96 257V257.5H96.5V257H96ZM64 257H63.5V257.5H64V257ZM64 225.5H96V224.5H64V225.5ZM95.5 225V257H96.5V225H95.5ZM96 256.5H64V257.5H96V256.5ZM64.5 257V225H63.5V257H64.5Z" fill="#331946" fill-opacity="0.27" mask="url(#path-223-inside-108_287_36)"/>
<mask id="path-225-inside-109_287_36" fill="white">
<path d="M96 225H128V257H96V225Z"/>
</mask>
<path d="M96 225V224.5H95.5V225H96ZM128 225H128.5V224.5H128V225ZM128 257V257.5H128.5V257H128ZM96 257H95.5V257.5H96V257ZM96 225.5H128V224.5H96V225.5ZM127.5 225V257H128.5V225H127.5ZM128 256.5H96V257.5H128V256.5ZM96.5 257V225H95.5V257H96.5Z" fill="#331946" fill-opacity="0.27" mask="url(#path-225-inside-109_287_36)"/>
<mask id="path-227-inside-110_287_36" fill="white">
<path d="M128 225H160V257H128V225Z"/>
</mask>
<path d="M128 225V224.5H127.5V225H128ZM160 225H160.5V224.5H160V225ZM160 257V257.5H160.5V257H160ZM128 257H127.5V257.5H128V257ZM128 225.5H160V224.5H128V225.5ZM159.5 225V257H160.5V225H159.5ZM160 256.5H128V257.5H160V256.5ZM128.5 257V225H127.5V257H128.5Z" fill="#331946" fill-opacity="0.27" mask="url(#path-227-inside-110_287_36)"/>
<mask id="path-229-inside-111_287_36" fill="white">
<path d="M160 225H192V257H160V225Z"/>
</mask>
<path d="M160 225V224.5H159.5V225H160ZM192 225H192.5V224.5H192V225ZM192 257V257.5H192.5V257H192ZM160 257H159.5V257.5H160V257ZM160 225.5H192V224.5H160V225.5ZM191.5 225V257H192.5V225H191.5ZM192 256.5H160V257.5H192V256.5ZM160.5 257V225H159.5V257H160.5Z" fill="#331946" fill-opacity="0.27" mask="url(#path-229-inside-111_287_36)"/>
<mask id="path-231-inside-112_287_36" fill="white">
<path d="M192 225H224V257H192V225Z"/>
</mask>
<path d="M192 225V224.5H191.5V225H192ZM224 225H224.5V224.5H224V225ZM224 257V257.5H224.5V257H224ZM192 257H191.5V257.5H192V257ZM192 225.5H224V224.5H192V225.5ZM223.5 225V257H224.5V225H223.5ZM224 256.5H192V257.5H224V256.5ZM192.5 257V225H191.5V257H192.5Z" fill="#331946" fill-opacity="0.27" mask="url(#path-231-inside-112_287_36)"/>
<mask id="path-233-inside-113_287_36" fill="white">
<path d="M224 225H256V257H224V225Z"/>
</mask>
<path d="M224 225V224.5H223.5V225H224ZM256 225H256.5V224.5H256V225ZM256 257V257.5H256.5V257H256ZM224 257H223.5V257.5H224V257ZM224 225.5H256V224.5H224V225.5ZM255.5 225V257H256.5V225H255.5ZM256 256.5H224V257.5H256V256.5ZM224.5 257V225H223.5V257H224.5Z" fill="#331946" fill-opacity="0.27" mask="url(#path-233-inside-113_287_36)"/>
<mask id="path-235-inside-114_287_36" fill="white">
<path d="M256 225H288V257H256V225Z"/>
</mask>
<path d="M256 225V224.5H255.5V225H256ZM288 225H288.5V224.5H288V225ZM288 257V257.5H288.5V257H288ZM256 257H255.5V257.5H256V257ZM256 225.5H288V224.5H256V225.5ZM287.5 225V257H288.5V225H287.5ZM288 256.5H256V257.5H288V256.5ZM256.5 257V225H255.5V257H256.5Z" fill="#331946" fill-opacity="0.27" mask="url(#path-235-inside-114_287_36)"/>
<mask id="path-237-inside-115_287_36" fill="white">
<path d="M288 225H320V257H288V225Z"/>
</mask>
<path d="M288 225V224.5H287.5V225H288ZM320 225H320.5V224.5H320V225ZM320 257V257.5H320.5V257H320ZM288 257H287.5V257.5H288V257ZM288 225.5H320V224.5H288V225.5ZM319.5 225V257H320.5V225H319.5ZM320 256.5H288V257.5H320V256.5ZM288.5 257V225H287.5V257H288.5Z" fill="#331946" fill-opacity="0.27" mask="url(#path-237-inside-115_287_36)"/>
<mask id="path-239-inside-116_287_36" fill="white">
<path d="M320 225H352V257H320V225Z"/>
</mask>
<path d="M320 225V224.5H319.5V225H320ZM352 225H352.5V224.5H352V225ZM352 257V257.5H352.5V257H352ZM320 257H319.5V257.5H320V257ZM320 225.5H352V224.5H320V225.5ZM351.5 225V257H352.5V225H351.5ZM352 256.5H320V257.5H352V256.5ZM320.5 257V225H319.5V257H320.5Z" fill="#331946" fill-opacity="0.27" mask="url(#path-239-inside-116_287_36)"/>
<mask id="path-241-inside-117_287_36" fill="white">
<path d="M352 225H384V257H352V225Z"/>
</mask>
<path d="M352 225V224.5H351.5V225H352ZM384 225H384.5V224.5H384V225ZM384 257V257.5H384.5V257H384ZM352 257H351.5V257.5H352V257ZM352 225.5H384V224.5H352V225.5ZM383.5 225V257H384.5V225H383.5ZM384 256.5H352V257.5H384V256.5ZM352.5 257V225H351.5V257H352.5Z" fill="#331946" fill-opacity="0.27" mask="url(#path-241-inside-117_287_36)"/>
<mask id="path-243-inside-118_287_36" fill="white">
<path d="M384 225H416V257H384V225Z"/>
</mask>
<path d="M384 225V224.5H383.5V225H384ZM416 225H416.5V224.5H416V225ZM416 257V257.5H416.5V257H416ZM384 257H383.5V257.5H384V257ZM384 225.5H416V224.5H384V225.5ZM415.5 225V257H416.5V225H415.5ZM416 256.5H384V257.5H416V256.5ZM384.5 257V225H383.5V257H384.5Z" fill="#331946" fill-opacity="0.27" mask="url(#path-243-inside-118_287_36)"/>
<mask id="path-245-inside-119_287_36" fill="white">
<path d="M416 225H448V257H416V225Z"/>
</mask>
<path d="M416 225V224.5H415.5V225H416ZM448 225H448.5V224.5H448V225ZM448 257V257.5H448.5V257H448ZM416 257H415.5V257.5H416V257ZM416 225.5H448V224.5H416V225.5ZM447.5 225V257H448.5V225H447.5ZM448 256.5H416V257.5H448V256.5ZM416.5 257V225H415.5V257H416.5Z" fill="#331946" fill-opacity="0.27" mask="url(#path-245-inside-119_287_36)"/>
<mask id="path-247-inside-120_287_36" fill="white">
<path d="M448 225H480V257H448V225Z"/>
</mask>
<path d="M448 225V224.5H447.5V225H448ZM480 225H481V224.5H480V225ZM480 257V257.5H481V257H480ZM448 257H447.5V257.5H448V257ZM448 225.5H480V224.5H448V225.5ZM479 225V257H481V225H479ZM480 256.5H448V257.5H480V256.5ZM448.5 257V225H447.5V257H448.5Z" fill="#331946" fill-opacity="0.27" mask="url(#path-247-inside-120_287_36)"/>
<circle cx="336" cy="241" r="12" fill="#9A59BA" fill-opacity="0.3"/>
<circle cx="336" cy="241" r="8" fill="#9A59BA" fill-opacity="0.4"/>
<circle cx="336" cy="241" r="4" fill="#9A59BA"/>
<mask id="path-252-inside-121_287_36" fill="white">
<path d="M0 257H32V289H0V257Z"/>
</mask>
<path d="M0 257V256.5H-0.5V257H0ZM32 257H32.5V256.5H32V257ZM32 289V289.5H32.5V289H32ZM0 289H-0.5V289.5H0V289ZM0 257.5H32V256.5H0V257.5ZM31.5 257V289H32.5V257H31.5ZM32 288.5H0V289.5H32V288.5ZM0.5 289V257H-0.5V289H0.5Z" fill="#331946" fill-opacity="0.27" mask="url(#path-252-inside-121_287_36)"/>
<mask id="path-254-inside-122_287_36" fill="white">
<path d="M32 257H64V289H32V257Z"/>
</mask>
<path d="M32 257V256.5H31.5V257H32ZM64 257H64.5V256.5H64V257ZM64 289V289.5H64.5V289H64ZM32 289H31.5V289.5H32V289ZM32 257.5H64V256.5H32V257.5ZM63.5 257V289H64.5V257H63.5ZM64 288.5H32V289.5H64V288.5ZM32.5 289V257H31.5V289H32.5Z" fill="#331946" fill-opacity="0.27" mask="url(#path-254-inside-122_287_36)"/>
<mask id="path-256-inside-123_287_36" fill="white">
<path d="M64 257H96V289H64V257Z"/>
</mask>
<path d="M64 257V256.5H63.5V257H64ZM96 257H96.5V256.5H96V257ZM96 289V289.5H96.5V289H96ZM64 289H63.5V289.5H64V289ZM64 257.5H96V256.5H64V257.5ZM95.5 257V289H96.5V257H95.5ZM96 288.5H64V289.5H96V288.5ZM64.5 289V257H63.5V289H64.5Z" fill="#331946" fill-opacity="0.27" mask="url(#path-256-inside-123_287_36)"/>
<mask id="path-258-inside-124_287_36" fill="white">
<path d="M96 257H128V289H96V257Z"/>
</mask>
<path d="M96 257V256.5H95.5V257H96ZM128 257H128.5V256.5H128V257ZM128 289V289.5H128.5V289H128ZM96 289H95.5V289.5H96V289ZM96 257.5H128V256.5H96V257.5ZM127.5 257V289H128.5V257H127.5ZM128 288.5H96V289.5H128V288.5ZM96.5 289V257H95.5V289H96.5Z" fill="#331946" fill-opacity="0.27" mask="url(#path-258-inside-124_287_36)"/>
<mask id="path-260-inside-125_287_36" fill="white">
<path d="M128 257H160V289H128V257Z"/>
</mask>
<path d="M128 257V256.5H127.5V257H128ZM160 257H160.5V256.5H160V257ZM160 289V289.5H160.5V289H160ZM128 289H127.5V289.5H128V289ZM128 257.5H160V256.5H128V257.5ZM159.5 257V289H160.5V257H159.5ZM160 288.5H128V289.5H160V288.5ZM128.5 289V257H127.5V289H128.5Z" fill="#331946" fill-opacity="0.27" mask="url(#path-260-inside-125_287_36)"/>
<mask id="path-262-inside-126_287_36" fill="white">
<path d="M160 257H192V289H160V257Z"/>
</mask>
<path d="M160 257V256.5H159.5V257H160ZM192 257H192.5V256.5H192V257ZM192 289V289.5H192.5V289H192ZM160 289H159.5V289.5H160V289ZM160 257.5H192V256.5H160V257.5ZM191.5 257V289H192.5V257H191.5ZM192 288.5H160V289.5H192V288.5ZM160.5 289V257H159.5V289H160.5Z" fill="#331946" fill-opacity="0.27" mask="url(#path-262-inside-126_287_36)"/>
<mask id="path-264-inside-127_287_36" fill="white">
<path d="M192 257H224V289H192V257Z"/>
</mask>
<path d="M192 257V256.5H191.5V257H192ZM224 257H224.5V256.5H224V257ZM224 289V289.5H224.5V289H224ZM192 289H191.5V289.5H192V289ZM192 257.5H224V256.5H192V257.5ZM223.5 257V289H224.5V257H223.5ZM224 288.5H192V289.5H224V288.5ZM192.5 289V257H191.5V289H192.5Z" fill="#331946" fill-opacity="0.27" mask="url(#path-264-inside-127_287_36)"/>
<mask id="path-266-inside-128_287_36" fill="white">
<path d="M224 257H256V289H224V257Z"/>
</mask>
<path d="M224 257V256.5H223.5V257H224ZM256 257H256.5V256.5H256V257ZM256 289V289.5H256.5V289H256ZM224 289H223.5V289.5H224V289ZM224 257.5H256V256.5H224V257.5ZM255.5 257V289H256.5V257H255.5ZM256 288.5H224V289.5H256V288.5ZM224.5 289V257H223.5V289H224.5Z" fill="#331946" fill-opacity="0.27" mask="url(#path-266-inside-128_287_36)"/>
<mask id="path-268-inside-129_287_36" fill="white">
<path d="M256 257H288V289H256V257Z"/>
</mask>
<path d="M256 257V256.5H255.5V257H256ZM288 257H288.5V256.5H288V257ZM288 289V289.5H288.5V289H288ZM256 289H255.5V289.5H256V289ZM256 257.5H288V256.5H256V257.5ZM287.5 257V289H288.5V257H287.5ZM288 288.5H256V289.5H288V288.5ZM256.5 289V257H255.5V289H256.5Z" fill="#331946" fill-opacity="0.27" mask="url(#path-268-inside-129_287_36)"/>
<mask id="path-270-inside-130_287_36" fill="white">
<path d="M288 257H320V289H288V257Z"/>
</mask>
<path d="M288 257V256.5H287.5V257H288ZM320 257H320.5V256.5H320V257ZM320 289V289.5H320.5V289H320ZM288 289H287.5V289.5H288V289ZM288 257.5H320V256.5H288V257.5ZM319.5 257V289H320.5V257H319.5ZM320 288.5H288V289.5H320V288.5ZM288.5 289V257H287.5V289H288.5Z" fill="#331946" fill-opacity="0.27" mask="url(#path-270-inside-130_287_36)"/>
<mask id="path-272-inside-131_287_36" fill="white">
<path d="M320 257H352V289H320V257Z"/>
</mask>
<path d="M320 257V256.5H319.5V257H320ZM352 257H352.5V256.5H352V257ZM352 289V289.5H352.5V289H352ZM320 289H319.5V289.5H320V289ZM320 257.5H352V256.5H320V257.5ZM351.5 257V289H352.5V257H351.5ZM352 288.5H320V289.5H352V288.5ZM320.5 289V257H319.5V289H320.5Z" fill="#331946" fill-opacity="0.27" mask="url(#path-272-inside-131_287_36)"/>
<mask id="path-274-inside-132_287_36" fill="white">
<path d="M352 257H384V289H352V257Z"/>
</mask>
<path d="M352 257V256.5H351.5V257H352ZM384 257H384.5V256.5H384V257ZM384 289V289.5H384.5V289H384ZM352 289H351.5V289.5H352V289ZM352 257.5H384V256.5H352V257.5ZM383.5 257V289H384.5V257H383.5ZM384 288.5H352V289.5H384V288.5ZM352.5 289V257H351.5V289H352.5Z" fill="#331946" fill-opacity="0.27" mask="url(#path-274-inside-132_287_36)"/>
<mask id="path-276-inside-133_287_36" fill="white">
<path d="M384 257H416V289H384V257Z"/>
</mask>
<path d="M384 257V256.5H383.5V257H384ZM416 257H416.5V256.5H416V257ZM416 289V289.5H416.5V289H416ZM384 289H383.5V289.5H384V289ZM384 257.5H416V256.5H384V257.5ZM415.5 257V289H416.5V257H415.5ZM416 288.5H384V289.5H416V288.5ZM384.5 289V257H383.5V289H384.5Z" fill="#331946" fill-opacity="0.27" mask="url(#path-276-inside-133_287_36)"/>
<mask id="path-278-inside-134_287_36" fill="white">
<path d="M416 257H448V289H416V257Z"/>
</mask>
<path d="M416 257V256.5H415.5V257H416ZM448 257H448.5V256.5H448V257ZM448 289V289.5H448.5V289H448ZM416 289H415.5V289.5H416V289ZM416 257.5H448V256.5H416V257.5ZM447.5 257V289H448.5V257H447.5ZM448 288.5H416V289.5H448V288.5ZM416.5 289V257H415.5V289H416.5Z" fill="#331946" fill-opacity="0.27" mask="url(#path-278-inside-134_287_36)"/>
<mask id="path-280-inside-135_287_36" fill="white">
<path d="M448 257H480V289H448V257Z"/>
</mask>
<path d="M448 257V256.5H447.5V257H448ZM480 257H481V256.5H480V257ZM480 289V289.5H481V289H480ZM448 289H447.5V289.5H448V289ZM448 257.5H480V256.5H448V257.5ZM479 257V289H481V257H479ZM480 288.5H448V289.5H480V288.5ZM448.5 289V257H447.5V289H448.5Z" fill="#331946" fill-opacity="0.27" mask="url(#path-280-inside-135_287_36)"/>
<path d="M48 48.0049C26.1266 47.9166 23.0886 49.0532 2.32458e-06 48.9981" stroke="#9A59BA" stroke-width="6"/>
<path d="M44 226.005C22.1266 225.917 19.0886 227.053 -4 226.998" stroke="#9A59BA" stroke-width="6"/>
<rect x="25" y="25" width="46" height="46" rx="9" fill="#4F247A"/>
<rect x="25" y="25" width="46" height="46" rx="9" stroke="#191028" stroke-width="2"/>
<circle cx="48" cy="48" r="9" stroke="#9A59BA" stroke-width="6"/>
<rect x="25" y="201" width="46" height="46" rx="9" fill="#4F247A"/>
<rect x="25" y="201" width="46" height="46" rx="9" stroke="#191028" stroke-width="2"/>
<circle cx="48" cy="224" r="9" stroke="#9A59BA" stroke-width="6"/>
<path d="M56 48.4353C143.038 40.5784 155.127 141.738 247 136.827" stroke="#9A59BA" stroke-width="6"/>
<path d="M56 223.574C143.038 231.255 155.127 132.369 247 137.169" stroke="#9A59BA" stroke-width="6"/>
<g filter="url(#filter1_f_287_36)">
<path d="M10.0831 234.239C22.3851 224.309 291.703 -12.1623 171.876 145.927C170.783 147.369 169.353 148.791 168.002 149.994C144.561 170.857 109.005 250.897 97.0064 260.582C84.6445 270.56 -4.22904 289.283 -8.2139 280.461C-14.6037 272.545 -2.27879 244.217 10.0831 234.239Z" fill="#9A59BA"/>
</g>
<g filter="url(#filter2_f_287_36)">
<path d="M364.083 46.2395C376.385 36.3096 645.703 -200.162 525.876 -42.0731C524.783 -40.6312 523.353 -39.2085 522.002 -38.0057C498.561 -17.1424 463.005 62.8973 451.006 72.582C438.644 82.5602 349.771 101.283 345.786 92.4612C339.396 84.545 351.721 56.2177 364.083 46.2395Z" fill="#9A59BA"/>
</g>
<g clip-path="url(#clip1_287_36)">
<rect width="48" height="88" transform="translate(247 48)" fill="#4F247A"/>
<path d="M273.486 83.1429C273.741 83.2147 273.958 83.3849 274.087 83.6161C274.217 83.8473 274.25 84.1206 274.178 84.3759L269.748 100.164C269.713 100.29 269.653 100.409 269.571 100.512C269.49 100.615 269.39 100.701 269.275 100.766C269.161 100.83 269.034 100.871 268.904 100.887C268.774 100.903 268.641 100.892 268.515 100.857C268.389 100.821 268.27 100.761 268.167 100.68C268.064 100.599 267.977 100.498 267.913 100.384C267.849 100.269 267.808 100.143 267.792 100.013C267.776 99.8826 267.787 99.7504 267.822 99.6239L272.252 83.8359C272.287 83.7093 272.347 83.591 272.429 83.4876C272.51 83.3842 272.611 83.2979 272.725 83.2336C272.84 83.1692 272.966 83.1281 273.097 83.1125C273.227 83.0969 273.359 83.1073 273.486 83.1429ZM266.207 87.0499C266.394 87.2374 266.5 87.4917 266.5 87.7569C266.5 88.0221 266.394 88.2764 266.207 88.4639L262.672 91.9999L266.207 95.5349C266.3 95.6277 266.374 95.738 266.424 95.8593C266.474 95.9806 266.5 96.1107 266.5 96.242C266.5 96.3734 266.474 96.5035 266.424 96.6248C266.374 96.7462 266.3 96.8565 266.208 96.9494C266.115 97.0423 266.004 97.116 265.883 97.1663C265.762 97.2166 265.632 97.2426 265.5 97.2426C265.369 97.2426 265.239 97.2168 265.118 97.1666C264.996 97.1164 264.886 97.0427 264.793 96.9499L260.55 92.7069C260.363 92.5194 260.257 92.2651 260.257 91.9999C260.257 91.7347 260.363 91.4804 260.55 91.2929L264.793 87.0499C264.981 86.8624 265.235 86.7571 265.5 86.7571C265.765 86.7571 266.019 86.8624 266.207 87.0499ZM275.793 88.4639C275.697 88.3716 275.621 88.2613 275.569 88.1393C275.516 88.0173 275.489 87.8861 275.488 87.7533C275.487 87.6205 275.512 87.4888 275.562 87.3659C275.612 87.243 275.687 87.1314 275.781 87.0375C275.875 86.9436 275.986 86.8694 276.109 86.8191C276.232 86.7688 276.364 86.7435 276.496 86.7446C276.629 86.7458 276.76 86.7734 276.882 86.8258C277.004 86.8782 277.115 86.9544 277.207 87.0499L281.45 91.2929C281.637 91.4804 281.743 91.7347 281.743 91.9999C281.743 92.2651 281.637 92.5194 281.45 92.7069L277.207 96.9499C277.019 97.1374 276.765 97.2427 276.5 97.2426C276.234 97.2425 275.98 97.137 275.793 96.9494C275.605 96.7618 275.5 96.5073 275.5 96.242C275.5 95.9768 275.605 95.7224 275.793 95.5349L279.328 91.9999L275.793 88.4639Z" fill="white"/>
<rect width="48" height="88" transform="translate(247 136)" fill="#381B55"/>
<circle cx="271" cy="180" r="9" stroke="#9A59BA" stroke-width="6"/>
</g>
<rect x="248" y="49" width="46" height="174" rx="9" stroke="#191028" stroke-width="2"/>
<circle cx="209" cy="17" r="12" fill="#9A59BA" fill-opacity="0.3"/>
<circle cx="209" cy="17" r="8" fill="#9A59BA" fill-opacity="0.4"/>
<circle cx="209" cy="17" r="4" fill="#9A59BA"/>
<path d="M279 179.57C366.038 187.338 378.127 87.3157 470 92.1713" stroke="#9A59BA" stroke-width="6"/>
</g>
<path d="M1 9.99999C1 5.02943 5.02944 1 10 1H469V271H1V9.99999Z" stroke="#733790" stroke-width="2"/>
</g>
<defs>
<filter id="filter0_i_287_36" x="0" y="0" width="470" height="277" filterUnits="userSpaceOnUse" color-interpolation-filters="sRGB">
<feFlood flood-opacity="0" result="BackgroundImageFix"/>
<feBlend mode="normal" in="SourceGraphic" in2="BackgroundImageFix" result="shape"/>
<feColorMatrix in="SourceAlpha" type="matrix" values="0 0 0 0 0 0 0 0 0 0 0 0 0 0 0 0 0 0 127 0" result="hardAlpha"/>
<feOffset dy="5"/>
<feGaussianBlur stdDeviation="10"/>
<feComposite in2="hardAlpha" operator="arithmetic" k2="-1" k3="1"/>
<feColorMatrix type="matrix" values="0 0 0 0 0.604064 0 0 0 0 0.348898 0 0 0 0 0.729622 0 0 0 0.6 0"/>
<feBlend mode="normal" in2="shape" result="effect1_innerShadow_287_36"/>
</filter>
<filter id="filter1_f_287_36" x="-209.957" y="-108.365" width="612.485" height="591.124" filterUnits="userSpaceOnUse" color-interpolation-filters="sRGB">
<feFlood flood-opacity="0" result="BackgroundImageFix"/>
<feBlend mode="normal" in="SourceGraphic" in2="BackgroundImageFix" result="shape"/>
<feGaussianBlur stdDeviation="100" result="effect1_foregroundBlur_287_36"/>
</filter>
<filter id="filter2_f_287_36" x="144.043" y="-296.365" width="612.485" height="591.124" filterUnits="userSpaceOnUse" color-interpolation-filters="sRGB">
<feFlood flood-opacity="0" result="BackgroundImageFix"/>
<feBlend mode="normal" in="SourceGraphic" in2="BackgroundImageFix" result="shape"/>
<feGaussianBlur stdDeviation="100" result="effect1_foregroundBlur_287_36"/>
</filter>
<clipPath id="clip0_287_36">
<path d="M0 9.99999C0 4.47715 4.47715 0 10 0H470V272H0V9.99999Z" fill="white"/>
</clipPath>
<clipPath id="clip1_287_36">
<rect x="247" y="48" width="48" height="176" rx="10" fill="white"/>
</clipPath>
</defs>
</svg>
