<svg width="170" height="271" viewBox="0 0 170 271" fill="none" xmlns="http://www.w3.org/2000/svg">
<rect width="60" height="2" rx="1" fill="#4E2064"/>
<rect y="6" width="30" height="2" rx="1" fill="#4E2064"/>
<rect y="12" width="30" height="2" rx="1" fill="#4E2064"/>
<rect y="18" width="30" height="2" rx="1" fill="#4E2064"/>
<rect y="24" width="30" height="2" rx="1" fill="#4E2064"/>
<rect y="30" width="60" height="2" rx="1" fill="#4E2064"/>
<rect y="36" width="30" height="2" rx="1" fill="#4E2064"/>
<rect y="42" width="30" height="2" rx="1" fill="#4E2064"/>
<rect y="48" width="30" height="2" rx="1" fill="#4E2064"/>
<rect y="54" width="30" height="2" rx="1" fill="#4E2064"/>
<rect y="60" width="60" height="2" rx="1" fill="#4E2064"/>
<rect y="66" width="30" height="2" rx="1" fill="#4E2064"/>
<rect y="72" width="30" height="2" rx="1" fill="#4E2064"/>
<rect y="78" width="30" height="2" rx="1" fill="#4E2064"/>
<rect y="84" width="30" height="2" rx="1" fill="#4E2064"/>
<rect y="90" width="60" height="2" rx="1" fill="#4E2064"/>
<rect y="96" width="30" height="2" rx="1" fill="#4E2064"/>
<rect y="102" width="30" height="2" rx="1" fill="#4E2064"/>
<rect y="108" width="30" height="2" rx="1" fill="#4E2064"/>
<rect y="114" width="30" height="2" rx="1" fill="#4E2064"/>
<rect y="120" width="60" height="2" rx="1" fill="#4E2064"/>
<rect y="126" width="30" height="2" rx="1" fill="#4E2064"/>
<rect y="132" width="30" height="2" rx="1" fill="#4E2064"/>
<rect y="138" width="30" height="2" rx="1" fill="#4E2064"/>
<rect y="144" width="30" height="2" rx="1" fill="#4E2064"/>
<rect y="150" width="60" height="2" rx="1" fill="#4E2064"/>
<rect y="156" width="30" height="2" rx="1" fill="#4E2064"/>
<rect y="162" width="30" height="2" rx="1" fill="#4E2064"/>
<rect y="168" width="30" height="2" rx="1" fill="#4E2064"/>
<rect y="174" width="30" height="2" rx="1" fill="#4E2064"/>
<rect y="180" width="170" height="2" fill="#4E2064"/>
<rect y="186" width="30" height="2" rx="1" fill="#4E2064"/>
<rect y="192" width="30" height="2" rx="1" fill="#4E2064"/>
<rect y="198" width="30" height="2" rx="1" fill="#4E2064"/>
<rect y="204" width="30" height="2" rx="1" fill="#4E2064"/>
<rect y="210" width="60" height="2" rx="1" fill="#4E2064"/>
<rect y="216" width="30" height="2" rx="1" fill="#4E2064"/>
<rect y="222" width="30" height="2" rx="1" fill="#4E2064"/>
<rect y="228" width="30" height="2" rx="1" fill="#4E2064"/>
<rect y="234" width="30" height="2" rx="1" fill="#4E2064"/>
<rect y="240" width="170" height="2" fill="#4E2064"/>
<rect y="246" width="30" height="2" rx="1" fill="#4E2064"/>
<rect y="252" width="30" height="2" rx="1" fill="#4E2064"/>
<rect y="258" width="30" height="2" rx="1" fill="#4E2064"/>
<rect y="264" width="30" height="2" rx="1" fill="#4E2064"/>
<rect y="270" width="60" height="2" rx="1" fill="#4E2064"/>
</svg>
