<svg width="21" height="25" viewBox="0 0 21 25" fill="none" xmlns="http://www.w3.org/2000/svg">
<g clip-path="url(#clip0_528_963)">
<path opacity="0.2" d="M19.7858 12.5C19.7858 13.617 18.1947 14.4598 17.7608 15.508C17.343 16.5188 17.8876 18.2447 17.0662 19.0661C16.2447 19.8875 14.5189 19.3429 13.5081 19.7607C12.4644 20.1947 11.6162 21.7857 10.5001 21.7857C9.38403 21.7857 8.53582 20.1947 7.49206 19.7607C6.48135 19.3429 4.75546 19.8875 3.93403 19.0661C3.1126 18.2447 3.65724 16.5188 3.23939 15.508C2.80546 14.4643 1.21439 13.6161 1.21439 12.5C1.21439 11.3839 2.80546 10.5357 3.23939 9.49197C3.65724 8.48215 3.1126 6.75537 3.93403 5.93394C4.75546 5.11251 6.48224 5.65715 7.49206 5.23929C8.54028 4.80537 9.38403 3.21429 10.5001 3.21429C11.6162 3.21429 12.4644 4.80537 13.5081 5.23929C14.5189 5.65715 16.2447 5.11251 17.0662 5.93394C17.8876 6.75537 17.343 8.48126 17.7608 9.49197C18.1947 10.5402 19.7858 11.3839 19.7858 12.5Z" fill="white"/>
<path d="M19.2375 10.2518C18.9009 9.9 18.5527 9.5375 18.4214 9.21875C18.3 8.92679 18.2929 8.44286 18.2857 7.97411C18.2723 7.10268 18.258 6.11518 17.5714 5.42857C16.8848 4.74196 15.8973 4.72768 15.0259 4.71429C14.5571 4.70714 14.0732 4.7 13.7812 4.57857C13.4634 4.44732 13.1 4.09911 12.7482 3.7625C12.1321 3.17054 11.4321 2.5 10.5 2.5C9.56786 2.5 8.86875 3.17054 8.25179 3.7625C7.9 4.09911 7.5375 4.44732 7.21875 4.57857C6.92857 4.7 6.44286 4.70714 5.97411 4.71429C5.10268 4.72768 4.11518 4.74196 3.42857 5.42857C2.74196 6.11518 2.73214 7.10268 2.71429 7.97411C2.70714 8.44286 2.7 8.92679 2.57857 9.21875C2.44732 9.53661 2.09911 9.9 1.7625 10.2518C1.17054 10.8679 0.5 11.5679 0.5 12.5C0.5 13.4321 1.17054 14.1312 1.7625 14.7482C2.09911 15.1 2.44732 15.4625 2.57857 15.7812C2.7 16.0732 2.70714 16.5571 2.71429 17.0259C2.72768 17.8973 2.74196 18.8848 3.42857 19.5714C4.11518 20.258 5.10268 20.2723 5.97411 20.2857C6.44286 20.2929 6.92679 20.3 7.21875 20.4214C7.53661 20.5527 7.9 20.9009 8.25179 21.2375C8.86786 21.8295 9.56786 22.5 10.5 22.5C11.4321 22.5 12.1312 21.8295 12.7482 21.2375C13.1 20.9009 13.4625 20.5527 13.7812 20.4214C14.0732 20.3 14.5571 20.2929 15.0259 20.2857C15.8973 20.2723 16.8848 20.258 17.5714 19.5714C18.258 18.8848 18.2723 17.8973 18.2857 17.0259C18.2929 16.5571 18.3 16.0732 18.4214 15.7812C18.5527 15.4634 18.9009 15.1 19.2375 14.7482C19.8295 14.1321 20.5 13.4321 20.5 12.5C20.5 11.5679 19.8295 10.8688 19.2375 10.2518ZM18.2063 13.7598C17.7786 14.2063 17.3357 14.6679 17.1009 15.2348C16.8759 15.7795 16.8661 16.4018 16.8571 17.0045C16.8482 17.6295 16.8384 18.2839 16.5607 18.5607C16.283 18.8375 15.633 18.8482 15.0045 18.8571C14.4018 18.8661 13.7795 18.8759 13.2348 19.1009C12.6679 19.3357 12.2063 19.7786 11.7598 20.2063C11.3134 20.6339 10.8571 21.0714 10.5 21.0714C10.1429 21.0714 9.68304 20.6321 9.24018 20.2063C8.79732 19.7804 8.33214 19.3357 7.76518 19.1009C7.22054 18.8759 6.59821 18.8661 5.99554 18.8571C5.37054 18.8482 4.71607 18.8384 4.43929 18.5607C4.1625 18.283 4.15179 17.633 4.14286 17.0045C4.13393 16.4018 4.12411 15.7795 3.89911 15.2348C3.66429 14.6679 3.22143 14.2063 2.79375 13.7598C2.36607 13.3134 1.92857 12.8571 1.92857 12.5C1.92857 12.1429 2.36786 11.683 2.79375 11.2402C3.21964 10.7973 3.66429 10.3321 3.89911 9.76518C4.12411 9.22054 4.13393 8.59821 4.14286 7.99554C4.15179 7.37054 4.16161 6.71607 4.43929 6.43929C4.71696 6.1625 5.36696 6.15179 5.99554 6.14286C6.59821 6.13393 7.22054 6.12411 7.76518 5.89911C8.33214 5.66429 8.79375 5.22143 9.24018 4.79375C9.68661 4.36607 10.1429 3.92857 10.5 3.92857C10.8571 3.92857 11.317 4.36786 11.7598 4.79375C12.2027 5.21964 12.6679 5.66429 13.2348 5.89911C13.7795 6.12411 14.4018 6.13393 15.0045 6.14286C15.6295 6.15179 16.2839 6.16161 16.5607 6.43929C16.8375 6.71696 16.8482 7.36696 16.8571 7.99554C16.8661 8.59821 16.8759 9.22054 17.1009 9.76518C17.3357 10.3321 17.7786 10.7937 18.2063 11.2402C18.6339 11.6866 19.0714 12.1429 19.0714 12.5C19.0714 12.8571 18.6321 13.317 18.2063 13.7598ZM14.5768 9.85179C14.6432 9.91812 14.6959 9.9969 14.7318 10.0836C14.7678 10.1703 14.7863 10.2633 14.7863 10.3571C14.7863 10.451 14.7678 10.544 14.7318 10.6307C14.6959 10.7174 14.6432 10.7962 14.5768 10.8625L9.57679 15.8625C9.51045 15.9289 9.43167 15.9816 9.34496 16.0175C9.25824 16.0535 9.1653 16.072 9.07143 16.072C8.97756 16.072 8.88461 16.0535 8.7979 16.0175C8.71119 15.9816 8.63241 15.9289 8.56607 15.8625L6.42321 13.7196C6.28919 13.5856 6.21389 13.4038 6.21389 13.2143C6.21389 13.0247 6.28919 12.843 6.42321 12.7089C6.55724 12.5749 6.73903 12.4996 6.92857 12.4996C7.11812 12.4996 7.2999 12.5749 7.43393 12.7089L9.07143 14.3473L13.5661 9.85179C13.6324 9.78537 13.7112 9.73269 13.7979 9.69674C13.8846 9.6608 13.9776 9.6423 14.0714 9.6423C14.1653 9.6423 14.2582 9.6608 14.345 9.69674C14.4317 9.73269 14.5104 9.78537 14.5768 9.85179Z" fill="white"/>
</g>
<defs>
<clipPath id="clip0_528_963">
<rect width="20" height="24" fill="white" transform="translate(0.5 0.5)"/>
</clipPath>
</defs>
</svg>
